<?xml version="1.0" encoding="utf-8"?>
<!-- Svg Vector Icons : http://www.onlinewebfonts.com/icon -->
<!DOCTYPE svg PUBLIC "-//W3C//DTD SVG 1.1//EN" "http://www.w3.org/Graphics/SVG/1.1/DTD/svg11.dtd">
<svg version="1.1" xmlns="http://www.w3.org/2000/svg" xmlns:xlink="http://www.w3.org/1999/xlink" x="0px" y="0px" viewBox="0 0 256 256" enable-background="new 0 0 256 256" xml:space="preserve">
<metadata> Svg Vector Icons : http://www.onlinewebfonts.com/icon </metadata>
<g><g><path fill="#000000" d="M107.3,88.5c-4-2.7-8.6-4.1-13.6-4.1c-7.2,0-13.3,2.6-18.4,7.9c-5.2,5.3-7.7,14.1-7.7,26.4c0,9.9,2.5,17.7,7.4,23.4c4.9,5.7,11.1,8.5,18.6,8.5c7.6,0,13.8-2.9,18.8-8.6c4.9-5.8,7.4-13.9,7.4-24.4c0-6.7-1.1-12.5-3.2-17.5C114.4,95.2,111.4,91.3,107.3,88.5z"/><path fill="#000000" d="M185.4,106.3c1.3-2.3,2-4.7,2-7.4c0-3.9-1.3-7.1-3.9-9.6c-2.6-2.5-6.8-3.8-12.4-3.8H147v27.1h21.7c4.6,0,8.2-0.5,10.8-1.5C182.1,110.2,184.1,108.5,185.4,106.3z"/><path fill="#000000" d="M238.7,110.4l-93.1-93.1c-9.7-9.7-25.5-9.7-35.3,0l-93.1,93.1c-9.7,9.7-9.7,25.5,0,35.3l93.1,93.1c9.7,9.7,25.5,9.7,35.3,0l93.1-93.1C248.4,135.9,248.4,120.1,238.7,110.4z M125.4,140c-3.1,6.6-7.5,11.5-13.3,14.9c-5.7,3.4-11.9,5.1-18.5,5.1c-7.2,0-13.6-1.9-19.3-5.6c-5.7-3.7-9.9-8.8-12.9-15.3c-2.9-6.5-4.4-13.3-4.4-20.5c0-13.6,3.4-24.3,10.2-32c6.8-7.7,15.6-11.6,26.3-11.6c7,0,13.4,1.8,19,5.4s10,8.7,12.9,15.1c3,6.5,4.5,13.8,4.5,22C130.1,126,128.5,133.4,125.4,140z M191.4,158.6l-10.1-17.1c-2.9-4.9-5.4-8.7-7.3-11.3c-1.9-2.6-3.6-4.4-5.1-5.5c-1.5-1-3-1.8-4.6-2.2c-1.2-0.3-3-0.4-5.6-0.4H147v36.4h-10.1v-82h33.8c6.8,0,12,0.7,15.5,2.2c3.5,1.5,6.4,4.1,8.5,7.8c2.1,3.7,3.2,7.9,3.2,12.4c0,5.8-1.8,10.7-5.3,14.7c-3.5,4-8.9,6.5-16.2,7.6c2.7,1.4,4.7,2.7,6.1,4.1c2.9,2.9,5.7,6.6,8.4,10.9l13.3,22.3H191.4L191.4,158.6z"/></g></g>
</svg>