<svg width="32" height="32" viewBox="0 0 32 32" fill="none" xmlns="http://www.w3.org/2000/svg">
<path d="M32 3C32 1.34315 30.6569 0 29 0H8C6.34315 0 5 1.33969 5 2.99655C5 5.1766 5 8.60954 5 13.5C5 23 0 25.5 0 29C0 30.6569 1.34315 32 3 32H20C26.6274 32 32 26.6274 32 20V3Z" fill="#AFC1D1"/>
<path d="M8.86239 22.0005V8.90958H11.6301V19.7185H17.2424V22.0005H8.86239ZM18.9986 22.0005V20.0062L23.6584 15.6915C24.0547 15.308 24.3871 14.9628 24.6555 14.656C24.9283 14.3492 25.1349 14.0488 25.2756 13.7547C25.4162 13.4565 25.4865 13.1347 25.4865 12.7896C25.4865 12.406 25.3991 12.0758 25.2244 11.7988C25.0497 11.5175 24.8111 11.3023 24.5085 11.1532C24.206 10.9998 23.8629 10.9231 23.4794 10.9231C23.0788 10.9231 22.7294 11.004 22.4311 11.166C22.1328 11.3279 21.9027 11.5601 21.7408 11.8627C21.5788 12.1653 21.4979 12.5253 21.4979 12.943H18.8707C18.8707 12.0864 19.0646 11.3428 19.4524 10.7121C19.8402 10.0815 20.3835 9.59353 21.0824 9.24836C21.7813 8.90319 22.5866 8.7306 23.4986 8.7306C24.4361 8.7306 25.2521 8.89679 25.9467 9.22918C26.6456 9.55731 27.1889 10.0133 27.5767 10.5971C27.9645 11.1809 28.1584 11.8499 28.1584 12.6042C28.1584 13.0985 28.0604 13.5864 27.8643 14.068C27.6726 14.5495 27.3295 15.0843 26.8352 15.6724C26.3409 16.2562 25.6442 16.9572 24.745 17.7753L22.8338 19.6482V19.7377H28.331V22.0005H18.9986Z" fill="#1C1F2A"/>
</svg>
