<svg width="32" height="32" viewBox="0 0 32 32" fill="none" xmlns="http://www.w3.org/2000/svg">
<circle cx="16" cy="16" r="12" fill="#AFC1D1"/>
<path d="M7.35886 22V10.3636H9.81909V19.9716H14.8077V22H7.35886ZM20.3499 22.1591C19.5015 22.1591 18.7458 22.0133 18.0829 21.7216C17.4238 21.4261 16.903 21.0208 16.5204 20.5057C16.1416 19.9867 15.9465 19.3883 15.9352 18.7102H18.4124C18.4276 18.9943 18.5204 19.2443 18.6909 19.4602C18.8651 19.6723 19.0962 19.8371 19.384 19.9545C19.6719 20.072 19.9958 20.1307 20.3556 20.1307C20.7306 20.1307 21.0621 20.0644 21.3499 19.9318C21.6378 19.7992 21.8632 19.6155 22.0261 19.3807C22.189 19.1458 22.2704 18.875 22.2704 18.5682C22.2704 18.2576 22.1833 17.983 22.009 17.7443C21.8386 17.5019 21.5924 17.3125 21.2704 17.1761C20.9522 17.0398 20.5734 16.9716 20.134 16.9716H19.0488V15.1648H20.134C20.5052 15.1648 20.8329 15.1004 21.117 14.9716C21.4049 14.8428 21.6284 14.6648 21.7874 14.4375C21.9465 14.2064 22.0261 13.9375 22.0261 13.6307C22.0261 13.339 21.956 13.0833 21.8159 12.8636C21.6795 12.6402 21.4863 12.4659 21.2363 12.3409C20.9901 12.2159 20.7022 12.1534 20.3727 12.1534C20.0393 12.1534 19.7344 12.214 19.4579 12.3352C19.1814 12.4527 18.9598 12.6212 18.7931 12.8409C18.6265 13.0606 18.5374 13.3182 18.5261 13.6136H16.1681C16.1795 12.9432 16.3708 12.3523 16.742 11.8409C17.1132 11.3295 17.6132 10.9299 18.242 10.642C18.8746 10.3504 19.5886 10.2045 20.384 10.2045C21.1871 10.2045 21.8897 10.3504 22.492 10.642C23.0943 10.9337 23.5621 11.3277 23.8954 11.8239C24.2325 12.3163 24.3992 12.8693 24.3954 13.483C24.3992 14.1345 24.1965 14.678 23.7874 15.1136C23.3821 15.5492 22.8537 15.8258 22.2022 15.9432V16.0341C23.0583 16.1439 23.7098 16.4413 24.1568 16.9261C24.6075 17.4072 24.831 18.0095 24.8272 18.733C24.831 19.3958 24.6397 19.9848 24.2534 20.5C23.8708 21.0152 23.3424 21.4205 22.6681 21.7159C21.9939 22.0114 21.2212 22.1591 20.3499 22.1591Z" fill="#1C1F2A"/>
<circle cx="16" cy="16" r="15.5" stroke="#AFC1D1"/>
</svg>
