<svg width="32" height="32" viewBox="0 0 32 32" fill="none" xmlns="http://www.w3.org/2000/svg">
<circle cx="16" cy="16" r="12" fill="#AFC1D1"/>
<path d="M11.2315 23V9.90909H16.3963C17.3849 9.90909 18.2287 10.0859 18.9276 10.4396C19.6307 10.7891 20.1655 11.2855 20.532 11.929C20.9027 12.5682 21.0881 13.3203 21.0881 14.1854C21.0881 15.0547 20.9006 15.8026 20.5256 16.429C20.1506 17.0511 19.6072 17.5284 18.8956 17.8608C18.1882 18.1932 17.3317 18.3594 16.326 18.3594H12.8679V16.1349H15.8786C16.407 16.1349 16.8459 16.0625 17.1953 15.9176C17.5447 15.7727 17.8047 15.5554 17.9751 15.2656C18.1499 14.9759 18.2372 14.6158 18.2372 14.1854C18.2372 13.7507 18.1499 13.3842 17.9751 13.0859C17.8047 12.7876 17.5426 12.5618 17.1889 12.4084C16.8395 12.2507 16.3984 12.1719 15.8658 12.1719H13.9993V23H11.2315ZM18.3011 17.0426L21.5547 23H18.4993L15.3161 17.0426H18.3011Z" fill="#1C1F2A"/>
<circle cx="16" cy="16" r="15.5" stroke="#AFC1D1"/>
</svg>
