<svg width="32" height="32" viewBox="0 0 32 32" fill="none" xmlns="http://www.w3.org/2000/svg">
<circle cx="16" cy="16" r="12" fill="#AFC1D1"/>
<path d="M6.80793 22V10.3636H11.3988C12.2776 10.3636 13.0276 10.5208 13.6488 10.8352C14.2738 11.1458 14.7492 11.5871 15.075 12.1591C15.4045 12.7273 15.5693 13.3958 15.5693 14.1648C15.5693 14.9375 15.4026 15.6023 15.0693 16.1591C14.736 16.7121 14.253 17.1364 13.6204 17.4318C12.9916 17.7273 12.2303 17.875 11.3363 17.875H8.26247V15.8977H10.9386C11.4083 15.8977 11.7985 15.8333 12.1091 15.7045C12.4197 15.5758 12.6507 15.3826 12.8022 15.125C12.9575 14.8674 13.0352 14.5473 13.0352 14.1648C13.0352 13.7784 12.9575 13.4527 12.8022 13.1875C12.6507 12.9223 12.4178 12.7216 12.1034 12.5852C11.7928 12.4451 11.4007 12.375 10.9272 12.375H9.26815V22H6.80793ZM13.092 16.7045L15.9841 22H13.2682L10.4386 16.7045H13.092ZM20.9009 22.1591C20.0524 22.1591 19.2967 22.0133 18.6338 21.7216C17.9747 21.4261 17.4539 21.0208 17.0713 20.5057C16.6925 19.9867 16.4975 19.3883 16.4861 18.7102H18.9634C18.9785 18.9943 19.0713 19.2443 19.2418 19.4602C19.416 19.6723 19.6471 19.8371 19.935 19.9545C20.2228 20.072 20.5467 20.1307 20.9066 20.1307C21.2816 20.1307 21.613 20.0644 21.9009 19.9318C22.1888 19.7992 22.4141 19.6155 22.577 19.3807C22.7399 19.1458 22.8213 18.875 22.8213 18.5682C22.8213 18.2576 22.7342 17.983 22.56 17.7443C22.3895 17.5019 22.1433 17.3125 21.8213 17.1761C21.5032 17.0398 21.1244 16.9716 20.685 16.9716H19.5997V15.1648H20.685C21.0562 15.1648 21.3838 15.1004 21.6679 14.9716C21.9558 14.8428 22.1793 14.6648 22.3384 14.4375C22.4975 14.2064 22.577 13.9375 22.577 13.6307C22.577 13.339 22.5069 13.0833 22.3668 12.8636C22.2304 12.6402 22.0372 12.4659 21.7872 12.3409C21.541 12.2159 21.2532 12.1534 20.9236 12.1534C20.5903 12.1534 20.2853 12.214 20.0088 12.3352C19.7323 12.4527 19.5107 12.6212 19.3441 12.8409C19.1774 13.0606 19.0884 13.3182 19.077 13.6136H16.7191C16.7304 12.9432 16.9217 12.3523 17.2929 11.8409C17.6641 11.3295 18.1641 10.9299 18.7929 10.642C19.4255 10.3504 20.1395 10.2045 20.935 10.2045C21.738 10.2045 22.4407 10.3504 23.0429 10.642C23.6452 10.9337 24.113 11.3277 24.4463 11.8239C24.7835 12.3163 24.9501 12.8693 24.9463 13.483C24.9501 14.1345 24.7475 14.678 24.3384 15.1136C23.9331 15.5492 23.4047 15.8258 22.7532 15.9432V16.0341C23.6092 16.1439 24.2607 16.4413 24.7077 16.9261C25.1585 17.4072 25.3819 18.0095 25.3782 18.733C25.3819 19.3958 25.1907 19.9848 24.8043 20.5C24.4217 21.0152 23.8933 21.4205 23.2191 21.7159C22.5448 22.0114 21.7721 22.1591 20.9009 22.1591Z" fill="#1C1F2A"/>
<circle cx="16" cy="16" r="15.5" stroke="#AFC1D1"/>
</svg>
