<svg width="32" height="32" viewBox="0 0 32 32" fill="none" xmlns="http://www.w3.org/2000/svg">
<path d="M0 16C0 7.16344 7.16344 0 16 0C24.8366 0 32 7.16344 32 16V29C32 30.6569 30.6569 32 29 32H3C1.34315 32 0 30.6569 0 29V16Z" fill="#AFC1D1"/>
<path d="M6.82821 25.0005V11.9096H11.993C12.9816 11.9096 13.8254 12.0864 14.5242 12.4401C15.2274 12.7896 15.7622 13.286 16.1286 13.9295C16.4994 14.5687 16.6847 15.3208 16.6847 16.1859C16.6847 17.0552 16.4972 17.803 16.1222 18.4295C15.7472 19.0516 15.2039 19.5289 14.4923 19.8613C13.7849 20.1937 12.9284 20.3599 11.9227 20.3599H8.46458V18.1354H11.4752C12.0036 18.1354 12.4426 18.063 12.792 17.9181C13.1414 17.7732 13.4014 17.5559 13.5718 17.2661C13.7465 16.9763 13.8339 16.6163 13.8339 16.1859C13.8339 15.7512 13.7465 15.3847 13.5718 15.0864C13.4014 14.7881 13.1393 14.5623 12.7856 14.4089C12.4362 14.2512 11.9951 14.1724 11.4624 14.1724H9.59597V25.0005H6.82821ZM13.8978 19.0431L17.1514 25.0005H14.096L10.9127 19.0431H13.8978ZM24.2593 11.9096V25.0005H21.4916V14.5367H21.4149L18.417 16.416V13.9614L21.6578 11.9096H24.2593Z" fill="#1C1F2A"/>
</svg>
