<svg width="32" height="32" viewBox="0 0 32 32" fill="none" xmlns="http://www.w3.org/2000/svg">
<path d="M0 3C0 1.34315 1.34315 0 3 0H24C25.6569 0 27 1.33969 27 2.99655C27 5.1766 27 8.60954 27 13.5C27 23 32 25.5 32 29C32 30.6569 30.6569 32 29 32H12C5.37258 32 0 26.6274 0 20V3Z" fill="#AFC1D1"/>
<path d="M3.06259 22.0005V8.90958H8.22736C9.216 8.90958 10.0597 9.08643 10.7586 9.44012C11.4617 9.78955 11.9965 10.286 12.363 10.9295C12.7338 11.5687 12.9191 12.3208 12.9191 13.1859C12.9191 14.0552 12.7316 14.803 12.3566 15.4295C11.9816 16.0516 11.4383 16.5289 10.7267 16.8613C10.0193 17.1937 9.16273 17.3599 8.15705 17.3599H4.69895V15.1354H7.70961C8.23801 15.1354 8.67694 15.063 9.02637 14.9181C9.3758 14.7732 9.63574 14.5559 9.8062 14.2661C9.98091 13.9763 10.0683 13.6163 10.0683 13.1859C10.0683 12.7512 9.98091 12.3847 9.8062 12.0864C9.63574 11.7881 9.37367 11.5623 9.01998 11.4089C8.67054 11.2512 8.22949 11.1724 7.69682 11.1724H5.83034V22.0005H3.06259ZM10.1322 16.0431L13.3857 22.0005H10.3303L7.14711 16.0431H10.1322ZM14.7984 22.0005V20.0062L19.4582 15.6915C19.8545 15.308 20.1869 14.9628 20.4553 14.656C20.7281 14.3492 20.9347 14.0488 21.0754 13.7547C21.216 13.4565 21.2863 13.1347 21.2863 12.7896C21.2863 12.406 21.199 12.0758 21.0242 11.7988C20.8495 11.5175 20.6109 11.3023 20.3083 11.1532C20.0058 10.9998 19.6627 10.9231 19.2792 10.9231C18.8786 10.9231 18.5292 11.004 18.2309 11.166C17.9326 11.3279 17.7025 11.5601 17.5406 11.8627C17.3786 12.1653 17.2977 12.5253 17.2977 12.943H14.6705C14.6705 12.0864 14.8644 11.3428 15.2522 10.7121C15.64 10.0815 16.1833 9.59353 16.8822 9.24836C17.5811 8.90319 18.3865 8.7306 19.2984 8.7306C20.2359 8.7306 21.0519 8.89679 21.7465 9.22918C22.4454 9.55731 22.9887 10.0133 23.3765 10.5971C23.7643 11.1809 23.9582 11.8499 23.9582 12.6042C23.9582 13.0985 23.8602 13.5864 23.6642 14.068C23.4724 14.5495 23.1294 15.0843 22.635 15.6724C22.1407 16.2562 21.444 16.9572 20.5448 17.7753L18.6336 19.6482V19.7377H24.1308V22.0005H14.7984Z" fill="#1C1F2A"/>
</svg>
