<svg width="36" height="36" viewBox="0 0 36 36" fill="none" xmlns="http://www.w3.org/2000/svg">
<path d="M7.29892 18V4.90909H12.4637C13.4523 4.90909 14.2961 5.08594 14.9949 5.43963C15.6981 5.78906 16.2329 6.28551 16.5993 6.92898C16.9701 7.56818 17.1555 8.32031 17.1555 9.18537C17.1555 10.0547 16.968 10.8026 16.593 11.429C16.218 12.0511 15.6746 12.5284 14.963 12.8608C14.2556 13.1932 13.3991 13.3594 12.3934 13.3594H8.93528V11.1349H11.9459C12.4743 11.1349 12.9133 11.0625 13.2627 10.9176C13.6121 10.7727 13.8721 10.5554 14.0425 10.2656C14.2172 9.97585 14.3046 9.61577 14.3046 9.18537C14.3046 8.75071 14.2172 8.38423 14.0425 8.08594C13.8721 7.78764 13.61 7.56179 13.2563 7.40838C12.9069 7.25071 12.4658 7.17188 11.9332 7.17188H10.0667V18H7.29892ZM14.3685 12.0426L17.6221 18H14.5667L11.3834 12.0426H14.3685ZM23.8735 18.179C22.9189 18.179 22.0688 18.0149 21.3231 17.6868C20.5816 17.3544 19.9956 16.8984 19.5653 16.3189C19.1391 15.7351 18.9197 15.0618 18.9069 14.299H21.6938C21.7108 14.6186 21.8153 14.8999 22.007 15.1428C22.203 15.3814 22.463 15.5668 22.7868 15.6989C23.1107 15.831 23.4751 15.897 23.8799 15.897C24.3018 15.897 24.6746 15.8224 24.9985 15.6733C25.3224 15.5241 25.5759 15.3175 25.7591 15.0533C25.9424 14.7891 26.034 14.4844 26.034 14.1392C26.034 13.7898 25.936 13.4808 25.74 13.2124C25.5482 12.9396 25.2712 12.7266 24.909 12.5732C24.551 12.4197 24.1249 12.343 23.6306 12.343H22.4097V10.3104H23.6306C24.0482 10.3104 24.4168 10.2379 24.7364 10.093C25.0603 9.94815 25.3117 9.74787 25.4907 9.49219C25.6697 9.23224 25.7591 8.92969 25.7591 8.58452C25.7591 8.25639 25.6803 7.96875 25.5226 7.72159C25.3692 7.47017 25.1519 7.27415 24.8707 7.13352C24.5937 6.9929 24.2698 6.92259 23.8991 6.92259C23.5241 6.92259 23.181 6.99077 22.8699 7.12713C22.5589 7.25923 22.3096 7.44886 22.1221 7.69602C21.9346 7.94318 21.8344 8.23295 21.8216 8.56534H19.1689C19.1817 7.81108 19.3969 7.14631 19.8145 6.57102C20.2322 5.99574 20.7947 5.54616 21.502 5.2223C22.2137 4.89418 23.017 4.73011 23.9118 4.73011C24.8153 4.73011 25.6057 4.89418 26.2833 5.2223C26.9608 5.55043 27.4871 5.99361 27.8621 6.55185C28.2414 7.10582 28.4289 7.72798 28.4246 8.41832C28.4289 9.15128 28.2009 9.76278 27.7407 10.2528C27.2847 10.7429 26.6903 11.054 25.9573 11.1861V11.2884C26.9204 11.4119 27.6533 11.7464 28.1562 12.2919C28.6633 12.8331 28.9147 13.5107 28.9104 14.3246C28.9147 15.0703 28.6995 15.733 28.2648 16.3125C27.8344 16.892 27.24 17.348 26.4814 17.6804C25.7229 18.0128 24.8536 18.179 23.8735 18.179Z" fill="#AFC1D1"/>
<path fill-rule="evenodd" clip-rule="evenodd" d="M0 26C0 23.7909 1.79086 22 4 22H32C34.2091 22 36 23.7909 36 26C36 28.2091 34.2091 30 32 30H26V36H10V30H4C1.79086 30 0 28.2091 0 26ZM18 31L10 25H26L18 31Z" fill="#AFC1D1"/>
</svg>
