<svg width="36" height="36" viewBox="0 0 36 36" fill="none" xmlns="http://www.w3.org/2000/svg">
<path d="M8.59872 18V4.90909H11.3665V15.718H16.9787V18H8.59872ZM23.5737 18.179C22.6191 18.179 21.769 18.0149 21.0233 17.6868C20.2818 17.3544 19.6958 16.8984 19.2654 16.3189C18.8393 15.7351 18.6199 15.0618 18.6071 14.299H21.394C21.411 14.6186 21.5154 14.8999 21.7072 15.1428C21.9032 15.3814 22.1632 15.5668 22.487 15.6989C22.8109 15.831 23.1752 15.897 23.5801 15.897C24.002 15.897 24.3748 15.8224 24.6987 15.6733C25.0225 15.5241 25.2761 15.3175 25.4593 15.0533C25.6426 14.7891 25.7342 14.4844 25.7342 14.1392C25.7342 13.7898 25.6362 13.4808 25.4402 13.2124C25.2484 12.9396 24.9714 12.7266 24.6092 12.5732C24.2512 12.4197 23.8251 12.343 23.3308 12.343H22.1099V10.3104H23.3308C23.7484 10.3104 24.117 10.2379 24.4366 10.093C24.7605 9.94815 25.0119 9.74787 25.1909 9.49219C25.3699 9.23224 25.4593 8.92969 25.4593 8.58452C25.4593 8.25639 25.3805 7.96875 25.2228 7.72159C25.0694 7.47017 24.8521 7.27415 24.5708 7.13352C24.2939 6.9929 23.97 6.92259 23.5993 6.92259C23.2243 6.92259 22.8812 6.99077 22.5701 7.12713C22.2591 7.25923 22.0098 7.44886 21.8223 7.69602C21.6348 7.94318 21.5346 8.23295 21.5218 8.56534H18.8691C18.8819 7.81108 19.0971 7.14631 19.5147 6.57102C19.9324 5.99574 20.4949 5.54616 21.2022 5.2223C21.9139 4.89418 22.7172 4.73011 23.612 4.73011C24.5154 4.73011 25.3059 4.89418 25.9835 5.2223C26.661 5.55043 27.1873 5.99361 27.5623 6.55185C27.9416 7.10582 28.1291 7.72798 28.1248 8.41832C28.1291 9.15128 27.9011 9.76278 27.4409 10.2528C26.9849 10.7429 26.3904 11.054 25.6575 11.1861V11.2884C26.6206 11.4119 27.3535 11.7464 27.8564 12.2919C28.3635 12.8331 28.6149 13.5107 28.6106 14.3246C28.6149 15.0703 28.3997 15.733 27.965 16.3125C27.5346 16.892 26.9402 17.348 26.1816 17.6804C25.4231 18.0128 24.5538 18.179 23.5737 18.179Z" fill="#AFC1D1"/>
<path fill-rule="evenodd" clip-rule="evenodd" d="M0 26C0 23.7909 1.79086 22 4 22H32C34.2091 22 36 23.7909 36 26C36 28.2091 34.2091 30 32 30H26V36H10V30H4C1.79086 30 0 28.2091 0 26ZM18 31L10 25H26L18 31Z" fill="#AFC1D1"/>
</svg>
