<svg width="32" height="32" viewBox="0 0 32 32" fill="none" xmlns="http://www.w3.org/2000/svg">
<path fill-rule="evenodd" clip-rule="evenodd" d="M11.5 12C11.7761 12 12 11.7761 12 11.5V4.5C12 4.22386 12.2239 4 12.5 4H19.5C19.7761 4 20 4.22386 20 4.5V11.5C20 11.7761 20.2239 12 20.5 12H27.5C27.7761 12 28 12.2239 28 12.5V19.5C28 19.7761 27.7761 20 27.5 20H20.5C20.2239 20 20 20.2239 20 20.5V27.5C20 27.7761 19.7761 28 19.5 28H12.5C12.2239 28 12 27.7761 12 27.5V20.5C12 20.2239 11.7761 20 11.5 20H4.5C4.22386 20 4 19.7761 4 19.5V12.5C4 12.2239 4.22386 12 4.5 12H11.5Z" fill="#A4BBE7"/>
</svg>
