<svg width="34" height="34" viewBox="0 0 34 34" fill="none" xmlns="http://www.w3.org/2000/svg">
<rect y="10" width="34" height="16" rx="8" fill="#D6E1F6"/>
<rect x="9" y="26" width="16" height="4" fill="#D6E1F6"/>
<mask id="path-3-outside-1_2_235" maskUnits="userSpaceOnUse" x="14" y="11.5" width="8" height="14" fill="black">
<rect fill="white" x="14" y="11.5" width="8" height="14"/>
<path d="M21.4502 24.5H14.3613V12.5967H17.0425V22.3252H21.4502V24.5Z"/>
</mask>
<path d="M21.4502 24.5H14.3613V12.5967H17.0425V22.3252H21.4502V24.5Z" fill="#1C212A"/>
<path d="M21.4502 24.5V24.6H21.5502V24.5H21.4502ZM14.3613 24.5H14.2613V24.6H14.3613V24.5ZM14.3613 12.5967V12.4967H14.2613V12.5967H14.3613ZM17.0425 12.5967H17.1425V12.4967H17.0425V12.5967ZM17.0425 22.3252H16.9425V22.4252H17.0425V22.3252ZM21.4502 22.3252H21.5502V22.2252H21.4502V22.3252ZM21.4502 24.4H14.3613V24.6H21.4502V24.4ZM14.4613 24.5V12.5967H14.2613V24.5H14.4613ZM14.3613 12.6967H17.0425V12.4967H14.3613V12.6967ZM16.9425 12.5967V22.3252H17.1425V12.5967H16.9425ZM17.0425 22.4252H21.4502V22.2252H17.0425V22.4252ZM21.3502 22.3252V24.5H21.5502V22.3252H21.3502Z" fill="#1C212A" mask="url(#path-3-outside-1_2_235)"/>
<path d="M17 10L20.4641 5.5H13.5359L17 10Z" fill="#D6E1F6"/>
</svg>
