<svg width="33" height="32" viewBox="0 0 33 32" fill="none" xmlns="http://www.w3.org/2000/svg">
<path d="M30.7968 0H6.96407C5.5154 0 4.53936 1.50178 4.97039 2.88485C8.04102 12.7377 4.72677 22.5714 1.60882 28.152C0.909864 29.403 1.56319 31.0564 2.97511 31.3014C24.5858 35.0499 31.7462 22.8169 32.6025 15.9295C33.2488 10.7312 32.9611 4.72824 32.7517 1.79756C32.6786 0.774478 31.8225 0 30.7968 0Z" fill="#D6E1F6"/>
<mask id="path-2-outside-1_2_178" maskUnits="userSpaceOnUse" x="11.5" y="5" width="17" height="14" fill="black">
<rect fill="white" x="11.5" y="5" width="17" height="14"/>
<path d="M18.9502 18H11.8613V6.09668H14.5425V15.8252H18.9502V18ZM27.7905 8.27979H24.3955V18H21.7061V8.27979H18.3276V6.09668H27.7905V8.27979Z"/>
</mask>
<path d="M18.9502 18H11.8613V6.09668H14.5425V15.8252H18.9502V18ZM27.7905 8.27979H24.3955V18H21.7061V8.27979H18.3276V6.09668H27.7905V8.27979Z" fill="#1C212A"/>
<path d="M18.9502 18V18.1H19.0502V18H18.9502ZM11.8613 18H11.7613V18.1H11.8613V18ZM11.8613 6.09668V5.99668H11.7613V6.09668H11.8613ZM14.5425 6.09668H14.6425V5.99668H14.5425V6.09668ZM14.5425 15.8252H14.4425V15.9252H14.5425V15.8252ZM18.9502 15.8252H19.0502V15.7252H18.9502V15.8252ZM18.9502 17.9H11.8613V18.1H18.9502V17.9ZM11.9613 18V6.09668H11.7613V18H11.9613ZM11.8613 6.19668H14.5425V5.99668H11.8613V6.19668ZM14.4425 6.09668V15.8252H14.6425V6.09668H14.4425ZM14.5425 15.9252H18.9502V15.7252H14.5425V15.9252ZM18.8502 15.8252V18H19.0502V15.8252H18.8502ZM27.7905 8.27979V8.37979H27.8905V8.27979H27.7905ZM24.3955 8.27979V8.17979H24.2955V8.27979H24.3955ZM24.3955 18V18.1H24.4955V18H24.3955ZM21.7061 18H21.6061V18.1H21.7061V18ZM21.7061 8.27979H21.8061V8.17979H21.7061V8.27979ZM18.3276 8.27979H18.2276V8.37979H18.3276V8.27979ZM18.3276 6.09668V5.99668H18.2276V6.09668H18.3276ZM27.7905 6.09668H27.8905V5.99668H27.7905V6.09668ZM27.7905 8.17979H24.3955V8.37979H27.7905V8.17979ZM24.2955 8.27979V18H24.4955V8.27979H24.2955ZM24.3955 17.9H21.7061V18.1H24.3955V17.9ZM21.8061 18V8.27979H21.6061V18H21.8061ZM21.7061 8.17979H18.3276V8.37979H21.7061V8.17979ZM18.4276 8.27979V6.09668H18.2276V8.27979H18.4276ZM18.3276 6.19668H27.7905V5.99668H18.3276V6.19668ZM27.6905 6.09668V8.27979H27.8905V6.09668H27.6905Z" fill="#1C212A" mask="url(#path-2-outside-1_2_178)"/>
</svg>
