<svg width="34" height="34" viewBox="0 0 34 34" fill="none" xmlns="http://www.w3.org/2000/svg">
<circle cx="17" cy="17" r="12" fill="#D6E1F6"/>
<circle cx="17" cy="17" r="11.0769" fill="#1C212A"/>
<circle cx="17" cy="17" r="10.1538" fill="#D6E1F6"/>
<mask id="path-4-outside-1_2_143" maskUnits="userSpaceOnUse" x="14" y="10" width="8" height="14" fill="black">
<rect fill="white" x="14" y="10" width="8" height="14"/>
<path d="M21.4502 23H14.3613V11.0967H17.0425V20.8252H21.4502V23Z"/>
</mask>
<path d="M21.4502 23H14.3613V11.0967H17.0425V20.8252H21.4502V23Z" fill="#1C212A"/>
<path d="M21.4502 23V23.1H21.5502V23H21.4502ZM14.3613 23H14.2613V23.1H14.3613V23ZM14.3613 11.0967V10.9967H14.2613V11.0967H14.3613ZM17.0425 11.0967H17.1425V10.9967H17.0425V11.0967ZM17.0425 20.8252H16.9425V20.9252H17.0425V20.8252ZM21.4502 20.8252H21.5502V20.7252H21.4502V20.8252ZM21.4502 22.9H14.3613V23.1H21.4502V22.9ZM14.4613 23V11.0967H14.2613V23H14.4613ZM14.3613 11.1967H17.0425V10.9967H14.3613V11.1967ZM16.9425 11.0967V20.8252H17.1425V11.0967H16.9425ZM17.0425 20.9252H21.4502V20.7252H17.0425V20.9252ZM21.3502 20.8252V23H21.5502V20.8252H21.3502Z" fill="#1C212A" mask="url(#path-4-outside-1_2_143)"/>
<path d="M23.9533 5.44186C19.0575 2.945 15.6776 2.93463 10.1359 5.46188C10.0238 5.51297 9.92522 5.3469 10.0258 5.27589L17.4386 0.0433595C17.475 0.0176779 17.5239 0.0191496 17.5587 0.0469694L24.0739 5.25915C24.1696 5.33571 24.0624 5.49754 23.9533 5.44186Z" fill="#D6E1F6"/>
<path d="M23.9533 28.5581C19.0575 31.055 15.6776 31.0654 10.1359 28.5381C10.0238 28.487 9.92522 28.6531 10.0258 28.7241L17.4386 33.9566C17.475 33.9823 17.5239 33.9809 17.5587 33.953L24.0739 28.7409C24.1696 28.6643 24.0624 28.5025 23.9533 28.5581Z" fill="#D6E1F6"/>
<path d="M28.5581 10.5467C31.055 15.4425 31.0654 18.8224 28.5381 24.3641C28.487 24.4762 28.6531 24.5748 28.7241 24.4742L33.9566 17.0614C33.9823 17.025 33.9809 16.9761 33.953 16.9413L28.7409 10.4261C28.6643 10.3304 28.5025 10.4376 28.5581 10.5467Z" fill="#D6E1F6"/>
<path d="M5.44186 10.5467C2.945 15.4425 2.93463 18.8224 5.46188 24.3641C5.51297 24.4762 5.3469 24.5748 5.27589 24.4742L0.0433595 17.0614C0.0176779 17.025 0.0191496 16.9761 0.0469694 16.9413L5.25915 10.4261C5.33571 10.3304 5.49754 10.4376 5.44186 10.5467Z" fill="#D6E1F6"/>
</svg>
