<svg width="32" height="32" viewBox="0 0 32 32" fill="none" xmlns="http://www.w3.org/2000/svg">
<circle cx="16" cy="19" r="12" fill="#D6E1F6"/>
<circle cx="16" cy="19" r="11.0769" fill="#1C212A"/>
<circle cx="16" cy="19" r="10.1538" fill="#D6E1F6"/>
<mask id="path-4-outside-1_2_123" maskUnits="userSpaceOnUse" x="11.5" y="12" width="11" height="14" fill="black">
<rect fill="white" x="11.5" y="12" width="11" height="14"/>
<path d="M21.8472 25H18.7676L16.9165 21.937C16.7782 21.7046 16.6453 21.4971 16.5181 21.3145C16.3908 21.1318 16.2607 20.9769 16.1279 20.8496C16.0007 20.7168 15.8651 20.6172 15.7212 20.5508C15.5828 20.4788 15.4307 20.4429 15.2646 20.4429H14.5425V25H11.8613V13.0967H16.1113C19 13.0967 20.4443 14.1758 20.4443 16.334C20.4443 16.749 20.3807 17.1336 20.2534 17.4878C20.1261 17.8364 19.9463 18.1519 19.7139 18.4341C19.4814 18.7163 19.1992 18.9598 18.8672 19.1646C18.5407 19.3693 18.1755 19.5298 17.7715 19.646V19.6792C17.9486 19.7345 18.1201 19.8258 18.2861 19.9531C18.4521 20.0749 18.6126 20.2188 18.7676 20.3848C18.9225 20.5508 19.0692 20.7306 19.2075 20.9243C19.3514 21.1125 19.4814 21.2979 19.5977 21.4805L21.8472 25ZM14.5425 15.1055V18.4175H15.7046C16.2801 18.4175 16.7422 18.2515 17.0908 17.9194C17.445 17.5819 17.6221 17.1641 17.6221 16.666C17.6221 15.6257 16.9995 15.1055 15.7544 15.1055H14.5425Z"/>
</mask>
<path d="M21.8472 25H18.7676L16.9165 21.937C16.7782 21.7046 16.6453 21.4971 16.5181 21.3145C16.3908 21.1318 16.2607 20.9769 16.1279 20.8496C16.0007 20.7168 15.8651 20.6172 15.7212 20.5508C15.5828 20.4788 15.4307 20.4429 15.2646 20.4429H14.5425V25H11.8613V13.0967H16.1113C19 13.0967 20.4443 14.1758 20.4443 16.334C20.4443 16.749 20.3807 17.1336 20.2534 17.4878C20.1261 17.8364 19.9463 18.1519 19.7139 18.4341C19.4814 18.7163 19.1992 18.9598 18.8672 19.1646C18.5407 19.3693 18.1755 19.5298 17.7715 19.646V19.6792C17.9486 19.7345 18.1201 19.8258 18.2861 19.9531C18.4521 20.0749 18.6126 20.2188 18.7676 20.3848C18.9225 20.5508 19.0692 20.7306 19.2075 20.9243C19.3514 21.1125 19.4814 21.2979 19.5977 21.4805L21.8472 25ZM14.5425 15.1055V18.4175H15.7046C16.2801 18.4175 16.7422 18.2515 17.0908 17.9194C17.445 17.5819 17.6221 17.1641 17.6221 16.666C17.6221 15.6257 16.9995 15.1055 15.7544 15.1055H14.5425Z" fill="#1C212A"/>
<path d="M21.8472 25V25.1H22.0298L21.9314 24.9461L21.8472 25ZM18.7676 25L18.682 25.0517L18.7112 25.1H18.7676V25ZM16.9165 21.937L16.8306 21.9882L16.8309 21.9887L16.9165 21.937ZM16.1279 20.8496L16.0557 20.9189L16.0587 20.9218L16.1279 20.8496ZM15.7212 20.5508L15.675 20.6396L15.6793 20.6416L15.7212 20.5508ZM14.5425 20.4429V20.3429H14.4425V20.4429H14.5425ZM14.5425 25V25.1H14.6425V25H14.5425ZM11.8613 25H11.7613V25.1H11.8613V25ZM11.8613 13.0967V12.9967H11.7613V13.0967H11.8613ZM20.2534 17.4878L20.3474 17.5221L20.3475 17.5216L20.2534 17.4878ZM18.8672 19.1646L18.8147 19.0794L18.8141 19.0798L18.8672 19.1646ZM17.7715 19.646L17.7438 19.5499L17.6715 19.5707V19.646H17.7715ZM17.7715 19.6792H17.6715V19.7527L17.7417 19.7746L17.7715 19.6792ZM18.2861 19.9531L18.2253 20.0325L18.227 20.0338L18.2861 19.9531ZM19.2075 20.9243L19.1261 20.9825L19.1281 20.9851L19.2075 20.9243ZM19.5977 21.4805L19.5133 21.5342L19.5134 21.5343L19.5977 21.4805ZM14.5425 15.1055V15.0055H14.4425V15.1055H14.5425ZM14.5425 18.4175H14.4425V18.5175H14.5425V18.4175ZM17.0908 17.9194L17.1598 17.9918L17.1598 17.9918L17.0908 17.9194ZM21.8472 24.9H18.7676V25.1H21.8472V24.9ZM18.8532 24.9483L17.0021 21.8853L16.8309 21.9887L18.682 25.0517L18.8532 24.9483ZM17.0024 21.8859C16.8631 21.6518 16.729 21.4422 16.6001 21.2573L16.436 21.3716C16.5617 21.5519 16.6932 21.7574 16.8306 21.9882L17.0024 21.8859ZM16.6001 21.2573C16.4698 21.0703 16.3356 20.9101 16.1971 20.7774L16.0587 20.9218C16.1859 21.0437 16.3118 21.1933 16.436 21.3716L16.6001 21.2573ZM16.2001 20.7804C16.0656 20.64 15.92 20.5324 15.7631 20.46L15.6793 20.6416C15.8101 20.702 15.9357 20.7936 16.0557 20.9188L16.2001 20.7804ZM15.7673 20.4621C15.6138 20.3822 15.4457 20.3429 15.2646 20.3429V20.5429C15.4157 20.5429 15.5519 20.5754 15.6751 20.6395L15.7673 20.4621ZM15.2646 20.3429H14.5425V20.5429H15.2646V20.3429ZM14.4425 20.4429V25H14.6425V20.4429H14.4425ZM14.5425 24.9H11.8613V25.1H14.5425V24.9ZM11.9613 25V13.0967H11.7613V25H11.9613ZM11.8613 13.1967H16.1113V12.9967H11.8613V13.1967ZM16.1113 13.1967C17.5461 13.1967 18.604 13.4652 19.3012 13.9861C19.993 14.503 20.3443 15.2794 20.3443 16.334H20.5443C20.5443 15.2303 20.1735 14.3882 19.4209 13.8259C18.6739 13.2677 17.5652 12.9967 16.1113 12.9967V13.1967ZM20.3443 16.334C20.3443 16.7387 20.2823 17.1117 20.1593 17.454L20.3475 17.5216C20.4791 17.1555 20.5443 16.7594 20.5443 16.334H20.3443ZM20.1595 17.4535C20.036 17.7917 19.8618 18.0972 19.6367 18.3705L19.7911 18.4977C20.0308 18.2066 20.2163 17.8812 20.3474 17.5221L20.1595 17.4535ZM19.6367 18.3705C19.4117 18.6437 19.138 18.8801 18.8147 19.0794L18.9197 19.2497C19.2604 19.0395 19.5512 18.7889 19.7911 18.4977L19.6367 18.3705ZM18.8141 19.0798C18.4962 19.2792 18.1396 19.436 17.7438 19.5499L17.7991 19.7421C18.2113 19.6235 18.5852 19.4594 18.9203 19.2493L18.8141 19.0798ZM17.6715 19.646V19.6792H17.8715V19.646H17.6715ZM17.7417 19.7746C17.9062 19.8261 18.0674 19.9114 18.2253 20.0325L18.347 19.8738C18.1728 19.7402 17.9909 19.643 17.8013 19.5838L17.7417 19.7746ZM18.227 20.0338C18.3875 20.1515 18.5434 20.2911 18.6945 20.453L18.8407 20.3165C18.6819 20.1464 18.5168 19.9983 18.3453 19.8725L18.227 20.0338ZM18.6945 20.453C18.8463 20.6157 18.9902 20.7921 19.1261 20.9824L19.2889 20.8662C19.1481 20.6691 18.9987 20.4859 18.8407 20.3165L18.6945 20.453ZM19.1281 20.9851C19.2704 21.1711 19.3988 21.3542 19.5133 21.5342L19.682 21.4268C19.5641 21.2415 19.4324 21.0538 19.287 20.8636L19.1281 20.9851ZM19.5134 21.5343L21.7629 25.0539L21.9314 24.9461L19.6819 21.4266L19.5134 21.5343ZM14.4425 15.1055V18.4175H14.6425V15.1055H14.4425ZM14.5425 18.5175H15.7046V18.3175H14.5425V18.5175ZM15.7046 18.5175C16.3005 18.5175 16.789 18.345 17.1598 17.9918L17.0219 17.847C16.6954 18.158 16.2598 18.3175 15.7046 18.3175V18.5175ZM17.1598 17.9918C17.5342 17.635 17.7221 17.1909 17.7221 16.666H17.5221C17.5221 17.1373 17.3558 17.5287 17.0218 17.847L17.1598 17.9918ZM17.7221 16.666C17.7221 16.1252 17.5594 15.7031 17.2193 15.4189C16.8826 15.1375 16.3884 15.0055 15.7544 15.0055V15.2055C16.3655 15.2055 16.8052 15.3335 17.091 15.5723C17.3735 15.8083 17.5221 16.1664 17.5221 16.666H17.7221ZM15.7544 15.0055H14.5425V15.2055H15.7544V15.0055Z" fill="#1C212A" mask="url(#path-4-outside-1_2_123)"/>
<path d="M22.9533 7.44186C18.0575 4.945 14.6776 4.93463 9.13587 7.46188C9.02383 7.51297 8.92522 7.3469 9.02582 7.27589L16.4386 2.04336C16.475 2.01768 16.5239 2.01915 16.5587 2.04697L23.0739 7.25915C23.1696 7.33571 23.0624 7.49754 22.9533 7.44186Z" fill="#D6E1F6"/>
</svg>
