<svg width="34" height="34" viewBox="0 0 34 34" fill="none" xmlns="http://www.w3.org/2000/svg">
<circle cx="17" cy="17" r="12" fill="#D6E1F6"/>
<circle cx="17" cy="17" r="11.0769" fill="#1C212A"/>
<circle cx="17" cy="17" r="10.1538" fill="#D6E1F6"/>
<mask id="path-4-outside-1_2_154" maskUnits="userSpaceOnUse" x="12.5" y="10" width="11" height="14" fill="black">
<rect fill="white" x="12.5" y="10" width="11" height="14"/>
<path d="M22.8472 23H19.7676L17.9165 19.937C17.7782 19.7046 17.6453 19.4971 17.5181 19.3145C17.3908 19.1318 17.2607 18.9769 17.1279 18.8496C17.0007 18.7168 16.8651 18.6172 16.7212 18.5508C16.5828 18.4788 16.4307 18.4429 16.2646 18.4429H15.5425V23H12.8613V11.0967H17.1113C20 11.0967 21.4443 12.1758 21.4443 14.334C21.4443 14.749 21.3807 15.1336 21.2534 15.4878C21.1261 15.8364 20.9463 16.1519 20.7139 16.4341C20.4814 16.7163 20.1992 16.9598 19.8672 17.1646C19.5407 17.3693 19.1755 17.5298 18.7715 17.646V17.6792C18.9486 17.7345 19.1201 17.8258 19.2861 17.9531C19.4521 18.0749 19.6126 18.2188 19.7676 18.3848C19.9225 18.5508 20.0692 18.7306 20.2075 18.9243C20.3514 19.1125 20.4814 19.2979 20.5977 19.4805L22.8472 23ZM15.5425 13.1055V16.4175H16.7046C17.2801 16.4175 17.7422 16.2515 18.0908 15.9194C18.445 15.5819 18.6221 15.1641 18.6221 14.666C18.6221 13.6257 17.9995 13.1055 16.7544 13.1055H15.5425Z"/>
</mask>
<path d="M22.8472 23H19.7676L17.9165 19.937C17.7782 19.7046 17.6453 19.4971 17.5181 19.3145C17.3908 19.1318 17.2607 18.9769 17.1279 18.8496C17.0007 18.7168 16.8651 18.6172 16.7212 18.5508C16.5828 18.4788 16.4307 18.4429 16.2646 18.4429H15.5425V23H12.8613V11.0967H17.1113C20 11.0967 21.4443 12.1758 21.4443 14.334C21.4443 14.749 21.3807 15.1336 21.2534 15.4878C21.1261 15.8364 20.9463 16.1519 20.7139 16.4341C20.4814 16.7163 20.1992 16.9598 19.8672 17.1646C19.5407 17.3693 19.1755 17.5298 18.7715 17.646V17.6792C18.9486 17.7345 19.1201 17.8258 19.2861 17.9531C19.4521 18.0749 19.6126 18.2188 19.7676 18.3848C19.9225 18.5508 20.0692 18.7306 20.2075 18.9243C20.3514 19.1125 20.4814 19.2979 20.5977 19.4805L22.8472 23ZM15.5425 13.1055V16.4175H16.7046C17.2801 16.4175 17.7422 16.2515 18.0908 15.9194C18.445 15.5819 18.6221 15.1641 18.6221 14.666C18.6221 13.6257 17.9995 13.1055 16.7544 13.1055H15.5425Z" fill="#1C212A"/>
<path d="M22.8472 23V23.1H23.0298L22.9314 22.9461L22.8472 23ZM19.7676 23L19.682 23.0517L19.7112 23.1H19.7676V23ZM17.9165 19.937L17.8306 19.9882L17.8309 19.9887L17.9165 19.937ZM17.1279 18.8496L17.0557 18.9189L17.0587 18.9218L17.1279 18.8496ZM16.7212 18.5508L16.675 18.6396L16.6793 18.6416L16.7212 18.5508ZM15.5425 18.4429V18.3429H15.4425V18.4429H15.5425ZM15.5425 23V23.1H15.6425V23H15.5425ZM12.8613 23H12.7613V23.1H12.8613V23ZM12.8613 11.0967V10.9967H12.7613V11.0967H12.8613ZM21.2534 15.4878L21.3474 15.5221L21.3475 15.5216L21.2534 15.4878ZM19.8672 17.1646L19.8147 17.0794L19.8141 17.0798L19.8672 17.1646ZM18.7715 17.646L18.7438 17.5499L18.6715 17.5707V17.646H18.7715ZM18.7715 17.6792H18.6715V17.7527L18.7417 17.7746L18.7715 17.6792ZM19.2861 17.9531L19.2253 18.0325L19.227 18.0338L19.2861 17.9531ZM20.2075 18.9243L20.1261 18.9825L20.1281 18.9851L20.2075 18.9243ZM20.5977 19.4805L20.5133 19.5342L20.5134 19.5343L20.5977 19.4805ZM15.5425 13.1055V13.0055H15.4425V13.1055H15.5425ZM15.5425 16.4175H15.4425V16.5175H15.5425V16.4175ZM18.0908 15.9194L18.1598 15.9918L18.1598 15.9918L18.0908 15.9194ZM22.8472 22.9H19.7676V23.1H22.8472V22.9ZM19.8532 22.9483L18.0021 19.8853L17.8309 19.9887L19.682 23.0517L19.8532 22.9483ZM18.0024 19.8859C17.8631 19.6518 17.729 19.4422 17.6001 19.2573L17.436 19.3716C17.5617 19.5519 17.6932 19.7574 17.8306 19.9882L18.0024 19.8859ZM17.6001 19.2573C17.4698 19.0703 17.3356 18.9101 17.1971 18.7774L17.0587 18.9218C17.1859 19.0437 17.3118 19.1933 17.436 19.3716L17.6001 19.2573ZM17.2001 18.7804C17.0656 18.64 16.92 18.5324 16.7631 18.46L16.6793 18.6416C16.8101 18.702 16.9357 18.7936 17.0557 18.9188L17.2001 18.7804ZM16.7673 18.4621C16.6138 18.3822 16.4457 18.3429 16.2646 18.3429V18.5429C16.4157 18.5429 16.5519 18.5754 16.6751 18.6395L16.7673 18.4621ZM16.2646 18.3429H15.5425V18.5429H16.2646V18.3429ZM15.4425 18.4429V23H15.6425V18.4429H15.4425ZM15.5425 22.9H12.8613V23.1H15.5425V22.9ZM12.9613 23V11.0967H12.7613V23H12.9613ZM12.8613 11.1967H17.1113V10.9967H12.8613V11.1967ZM17.1113 11.1967C18.5461 11.1967 19.604 11.4652 20.3012 11.9861C20.993 12.503 21.3443 13.2794 21.3443 14.334H21.5443C21.5443 13.2303 21.1735 12.3882 20.4209 11.8259C19.6739 11.2677 18.5652 10.9967 17.1113 10.9967V11.1967ZM21.3443 14.334C21.3443 14.7387 21.2823 15.1117 21.1593 15.454L21.3475 15.5216C21.4791 15.1555 21.5443 14.7594 21.5443 14.334H21.3443ZM21.1595 15.4535C21.036 15.7917 20.8618 16.0972 20.6367 16.3705L20.7911 16.4977C21.0308 16.2066 21.2163 15.8812 21.3474 15.5221L21.1595 15.4535ZM20.6367 16.3705C20.4117 16.6437 20.138 16.8801 19.8147 17.0794L19.9197 17.2497C20.2604 17.0395 20.5512 16.7889 20.7911 16.4977L20.6367 16.3705ZM19.8141 17.0798C19.4962 17.2792 19.1396 17.436 18.7438 17.5499L18.7991 17.7421C19.2113 17.6235 19.5852 17.4594 19.9203 17.2493L19.8141 17.0798ZM18.6715 17.646V17.6792H18.8715V17.646H18.6715ZM18.7417 17.7746C18.9062 17.8261 19.0674 17.9114 19.2253 18.0325L19.347 17.8738C19.1728 17.7402 18.9909 17.643 18.8013 17.5838L18.7417 17.7746ZM19.227 18.0338C19.3875 18.1515 19.5434 18.2911 19.6945 18.453L19.8407 18.3165C19.6819 18.1464 19.5168 17.9983 19.3453 17.8725L19.227 18.0338ZM19.6945 18.453C19.8463 18.6157 19.9902 18.7921 20.1261 18.9824L20.2889 18.8662C20.1481 18.6691 19.9987 18.4859 19.8407 18.3165L19.6945 18.453ZM20.1281 18.9851C20.2704 19.1711 20.3988 19.3542 20.5133 19.5342L20.682 19.4268C20.5641 19.2415 20.4324 19.0538 20.287 18.8636L20.1281 18.9851ZM20.5134 19.5343L22.7629 23.0539L22.9314 22.9461L20.6819 19.4266L20.5134 19.5343ZM15.4425 13.1055V16.4175H15.6425V13.1055H15.4425ZM15.5425 16.5175H16.7046V16.3175H15.5425V16.5175ZM16.7046 16.5175C17.3005 16.5175 17.789 16.345 18.1598 15.9918L18.0219 15.847C17.6954 16.158 17.2598 16.3175 16.7046 16.3175V16.5175ZM18.1598 15.9918C18.5342 15.635 18.7221 15.1909 18.7221 14.666H18.5221C18.5221 15.1373 18.3558 15.5287 18.0218 15.847L18.1598 15.9918ZM18.7221 14.666C18.7221 14.1252 18.5594 13.7031 18.2193 13.4189C17.8826 13.1375 17.3884 13.0055 16.7544 13.0055V13.2055C17.3655 13.2055 17.8052 13.3335 18.091 13.5723C18.3735 13.8083 18.5221 14.1664 18.5221 14.666H18.7221ZM16.7544 13.0055H15.5425V13.2055H16.7544V13.0055Z" fill="#1C212A" mask="url(#path-4-outside-1_2_154)"/>
<path d="M23.9533 5.44186C19.0575 2.945 15.6776 2.93463 10.1359 5.46188C10.0238 5.51297 9.92522 5.3469 10.0258 5.27589L17.4386 0.0433595C17.475 0.0176779 17.5239 0.0191496 17.5587 0.0469694L24.0739 5.25915C24.1696 5.33571 24.0624 5.49754 23.9533 5.44186Z" fill="#D6E1F6"/>
<path d="M23.9533 28.5581C19.0575 31.055 15.6776 31.0654 10.1359 28.5381C10.0238 28.487 9.92522 28.6531 10.0258 28.7241L17.4386 33.9566C17.475 33.9823 17.5239 33.9809 17.5587 33.953L24.0739 28.7409C24.1696 28.6643 24.0624 28.5025 23.9533 28.5581Z" fill="#D6E1F6"/>
<path d="M28.5581 10.5467C31.055 15.4425 31.0654 18.8224 28.5381 24.3641C28.487 24.4762 28.6531 24.5748 28.7241 24.4742L33.9566 17.0614C33.9823 17.025 33.9809 16.9761 33.953 16.9413L28.7409 10.4261C28.6643 10.3304 28.5025 10.4376 28.5581 10.5467Z" fill="#D6E1F6"/>
<path d="M5.44186 10.5467C2.945 15.4425 2.93463 18.8224 5.46188 24.3641C5.51297 24.4762 5.3469 24.5748 5.27589 24.4742L0.0433595 17.0614C0.0176779 17.025 0.0191496 16.9761 0.0469694 16.9413L5.25915 10.4261C5.33571 10.3304 5.49754 10.4376 5.44186 10.5467Z" fill="#D6E1F6"/>
</svg>
