<svg width="32" height="32" viewBox="0 0 32 32" fill="none" xmlns="http://www.w3.org/2000/svg">
<circle cx="16" cy="16" r="12" fill="#D6E1F6"/>
<circle cx="16" cy="16" r="11.0769" fill="#1C212A"/>
<circle cx="16" cy="16" r="10.1538" fill="#D6E1F6"/>
<mask id="path-4-outside-1_2_131" maskUnits="userSpaceOnUse" x="11.5" y="9" width="11" height="14" fill="black">
<rect fill="white" x="11.5" y="9" width="11" height="14"/>
<path d="M21.8472 22H18.7676L16.9165 18.937C16.7782 18.7046 16.6453 18.4971 16.5181 18.3145C16.3908 18.1318 16.2607 17.9769 16.1279 17.8496C16.0007 17.7168 15.8651 17.6172 15.7212 17.5508C15.5828 17.4788 15.4307 17.4429 15.2646 17.4429H14.5425V22H11.8613V10.0967H16.1113C19 10.0967 20.4443 11.1758 20.4443 13.334C20.4443 13.749 20.3807 14.1336 20.2534 14.4878C20.1261 14.8364 19.9463 15.1519 19.7139 15.4341C19.4814 15.7163 19.1992 15.9598 18.8672 16.1646C18.5407 16.3693 18.1755 16.5298 17.7715 16.646V16.6792C17.9486 16.7345 18.1201 16.8258 18.2861 16.9531C18.4521 17.0749 18.6126 17.2188 18.7676 17.3848C18.9225 17.5508 19.0692 17.7306 19.2075 17.9243C19.3514 18.1125 19.4814 18.2979 19.5977 18.4805L21.8472 22ZM14.5425 12.1055V15.4175H15.7046C16.2801 15.4175 16.7422 15.2515 17.0908 14.9194C17.445 14.5819 17.6221 14.1641 17.6221 13.666C17.6221 12.6257 16.9995 12.1055 15.7544 12.1055H14.5425Z"/>
</mask>
<path d="M21.8472 22H18.7676L16.9165 18.937C16.7782 18.7046 16.6453 18.4971 16.5181 18.3145C16.3908 18.1318 16.2607 17.9769 16.1279 17.8496C16.0007 17.7168 15.8651 17.6172 15.7212 17.5508C15.5828 17.4788 15.4307 17.4429 15.2646 17.4429H14.5425V22H11.8613V10.0967H16.1113C19 10.0967 20.4443 11.1758 20.4443 13.334C20.4443 13.749 20.3807 14.1336 20.2534 14.4878C20.1261 14.8364 19.9463 15.1519 19.7139 15.4341C19.4814 15.7163 19.1992 15.9598 18.8672 16.1646C18.5407 16.3693 18.1755 16.5298 17.7715 16.646V16.6792C17.9486 16.7345 18.1201 16.8258 18.2861 16.9531C18.4521 17.0749 18.6126 17.2188 18.7676 17.3848C18.9225 17.5508 19.0692 17.7306 19.2075 17.9243C19.3514 18.1125 19.4814 18.2979 19.5977 18.4805L21.8472 22ZM14.5425 12.1055V15.4175H15.7046C16.2801 15.4175 16.7422 15.2515 17.0908 14.9194C17.445 14.5819 17.6221 14.1641 17.6221 13.666C17.6221 12.6257 16.9995 12.1055 15.7544 12.1055H14.5425Z" fill="#1C212A"/>
<path d="M21.8472 22V22.1H22.0298L21.9314 21.9461L21.8472 22ZM18.7676 22L18.682 22.0517L18.7112 22.1H18.7676V22ZM16.9165 18.937L16.8306 18.9882L16.8309 18.9887L16.9165 18.937ZM16.1279 17.8496L16.0557 17.9189L16.0587 17.9218L16.1279 17.8496ZM15.7212 17.5508L15.675 17.6396L15.6793 17.6416L15.7212 17.5508ZM14.5425 17.4429V17.3429H14.4425V17.4429H14.5425ZM14.5425 22V22.1H14.6425V22H14.5425ZM11.8613 22H11.7613V22.1H11.8613V22ZM11.8613 10.0967V9.99668H11.7613V10.0967H11.8613ZM20.2534 14.4878L20.3474 14.5221L20.3475 14.5216L20.2534 14.4878ZM18.8672 16.1646L18.8147 16.0794L18.8141 16.0798L18.8672 16.1646ZM17.7715 16.646L17.7438 16.5499L17.6715 16.5707V16.646H17.7715ZM17.7715 16.6792H17.6715V16.7527L17.7417 16.7746L17.7715 16.6792ZM18.2861 16.9531L18.2253 17.0325L18.227 17.0338L18.2861 16.9531ZM19.2075 17.9243L19.1261 17.9825L19.1281 17.9851L19.2075 17.9243ZM19.5977 18.4805L19.5133 18.5342L19.5134 18.5343L19.5977 18.4805ZM14.5425 12.1055V12.0055H14.4425V12.1055H14.5425ZM14.5425 15.4175H14.4425V15.5175H14.5425V15.4175ZM17.0908 14.9194L17.1598 14.9918L17.1598 14.9918L17.0908 14.9194ZM21.8472 21.9H18.7676V22.1H21.8472V21.9ZM18.8532 21.9483L17.0021 18.8853L16.8309 18.9887L18.682 22.0517L18.8532 21.9483ZM17.0024 18.8859C16.8631 18.6518 16.729 18.4422 16.6001 18.2573L16.436 18.3716C16.5617 18.5519 16.6932 18.7574 16.8306 18.9882L17.0024 18.8859ZM16.6001 18.2573C16.4698 18.0703 16.3356 17.9101 16.1971 17.7774L16.0587 17.9218C16.1859 18.0437 16.3118 18.1933 16.436 18.3716L16.6001 18.2573ZM16.2001 17.7804C16.0656 17.64 15.92 17.5324 15.7631 17.46L15.6793 17.6416C15.8101 17.702 15.9357 17.7936 16.0557 17.9188L16.2001 17.7804ZM15.7673 17.4621C15.6138 17.3822 15.4457 17.3429 15.2646 17.3429V17.5429C15.4157 17.5429 15.5519 17.5754 15.6751 17.6395L15.7673 17.4621ZM15.2646 17.3429H14.5425V17.5429H15.2646V17.3429ZM14.4425 17.4429V22H14.6425V17.4429H14.4425ZM14.5425 21.9H11.8613V22.1H14.5425V21.9ZM11.9613 22V10.0967H11.7613V22H11.9613ZM11.8613 10.1967H16.1113V9.99668H11.8613V10.1967ZM16.1113 10.1967C17.5461 10.1967 18.604 10.4652 19.3012 10.9861C19.993 11.503 20.3443 12.2794 20.3443 13.334H20.5443C20.5443 12.2303 20.1735 11.3882 19.4209 10.8259C18.6739 10.2677 17.5652 9.99668 16.1113 9.99668V10.1967ZM20.3443 13.334C20.3443 13.7387 20.2823 14.1117 20.1593 14.454L20.3475 14.5216C20.4791 14.1555 20.5443 13.7594 20.5443 13.334H20.3443ZM20.1595 14.4535C20.036 14.7917 19.8618 15.0972 19.6367 15.3705L19.7911 15.4977C20.0308 15.2066 20.2163 14.8812 20.3474 14.5221L20.1595 14.4535ZM19.6367 15.3705C19.4117 15.6437 19.138 15.8801 18.8147 16.0794L18.9197 16.2497C19.2604 16.0395 19.5512 15.7889 19.7911 15.4977L19.6367 15.3705ZM18.8141 16.0798C18.4962 16.2792 18.1396 16.436 17.7438 16.5499L17.7991 16.7421C18.2113 16.6235 18.5852 16.4594 18.9203 16.2493L18.8141 16.0798ZM17.6715 16.646V16.6792H17.8715V16.646H17.6715ZM17.7417 16.7746C17.9062 16.8261 18.0674 16.9114 18.2253 17.0325L18.347 16.8738C18.1728 16.7402 17.9909 16.643 17.8013 16.5838L17.7417 16.7746ZM18.227 17.0338C18.3875 17.1515 18.5434 17.2911 18.6945 17.453L18.8407 17.3165C18.6819 17.1464 18.5168 16.9983 18.3453 16.8725L18.227 17.0338ZM18.6945 17.453C18.8463 17.6157 18.9902 17.7921 19.1261 17.9824L19.2889 17.8662C19.1481 17.6691 18.9987 17.4859 18.8407 17.3165L18.6945 17.453ZM19.1281 17.9851C19.2704 18.1711 19.3988 18.3542 19.5133 18.5342L19.682 18.4268C19.5641 18.2415 19.4324 18.0538 19.287 17.8636L19.1281 17.9851ZM19.5134 18.5343L21.7629 22.0539L21.9314 21.9461L19.6819 18.4266L19.5134 18.5343ZM14.4425 12.1055V15.4175H14.6425V12.1055H14.4425ZM14.5425 15.5175H15.7046V15.3175H14.5425V15.5175ZM15.7046 15.5175C16.3005 15.5175 16.789 15.345 17.1598 14.9918L17.0219 14.847C16.6954 15.158 16.2598 15.3175 15.7046 15.3175V15.5175ZM17.1598 14.9918C17.5342 14.635 17.7221 14.1909 17.7221 13.666H17.5221C17.5221 14.1373 17.3558 14.5287 17.0218 14.847L17.1598 14.9918ZM17.7221 13.666C17.7221 13.1252 17.5594 12.7031 17.2193 12.4189C16.8826 12.1375 16.3884 12.0055 15.7544 12.0055V12.2055C16.3655 12.2055 16.8052 12.3335 17.091 12.5723C17.3735 12.8083 17.5221 13.1664 17.5221 13.666H17.7221ZM15.7544 12.0055H14.5425V12.2055H15.7544V12.0055Z" fill="#1C212A" mask="url(#path-4-outside-1_2_131)"/>
</svg>
