<svg width="33" height="32" viewBox="0 0 33 32" fill="none" xmlns="http://www.w3.org/2000/svg">
<path d="M2.2032 0H26.0359C27.4846 0 28.4606 1.50178 28.0296 2.88485C24.959 12.7377 28.2732 22.5714 31.3912 28.152C32.0901 29.403 31.4368 31.0564 30.0249 31.3014C8.41418 35.0499 1.25383 22.8169 0.397533 15.9295C-0.248768 10.7312 0.0389252 4.72824 0.248299 1.79756C0.321392 0.774478 1.17751 0 2.2032 0Z" fill="#D6E1F6"/>
<mask id="path-2-outside-1_2_174" maskUnits="userSpaceOnUse" x="4.75" y="5" width="20" height="14" fill="black">
<rect fill="white" x="4.75" y="5" width="20" height="14"/>
<path d="M15.0972 18H12.0176L10.1665 14.937C10.0282 14.7046 9.89535 14.4971 9.76807 14.3145C9.64079 14.1318 9.51074 13.9769 9.37793 13.8496C9.25065 13.7168 9.11507 13.6172 8.97119 13.5508C8.83285 13.4788 8.68066 13.4429 8.51465 13.4429H7.79248V18H5.11133V6.09668H9.36133C12.25 6.09668 13.6943 7.17578 13.6943 9.33398C13.6943 9.74902 13.6307 10.1336 13.5034 10.4878C13.3761 10.8364 13.1963 11.1519 12.9639 11.4341C12.7314 11.7163 12.4492 11.9598 12.1172 12.1646C11.7907 12.3693 11.4255 12.5298 11.0215 12.646V12.6792C11.1986 12.7345 11.3701 12.8258 11.5361 12.9531C11.7021 13.0749 11.8626 13.2188 12.0176 13.3848C12.1725 13.5508 12.3192 13.7306 12.4575 13.9243C12.6014 14.1125 12.7314 14.2979 12.8477 14.4805L15.0972 18ZM7.79248 8.10547V11.4175H8.95459C9.53011 11.4175 9.99219 11.2515 10.3408 10.9194C10.695 10.5819 10.8721 10.1641 10.8721 9.66602C10.8721 8.62565 10.2495 8.10547 9.00439 8.10547H7.79248ZM24.228 8.27979H20.833V18H18.1436V8.27979H14.7651V6.09668H24.228V8.27979Z"/>
</mask>
<path d="M15.0972 18H12.0176L10.1665 14.937C10.0282 14.7046 9.89535 14.4971 9.76807 14.3145C9.64079 14.1318 9.51074 13.9769 9.37793 13.8496C9.25065 13.7168 9.11507 13.6172 8.97119 13.5508C8.83285 13.4788 8.68066 13.4429 8.51465 13.4429H7.79248V18H5.11133V6.09668H9.36133C12.25 6.09668 13.6943 7.17578 13.6943 9.33398C13.6943 9.74902 13.6307 10.1336 13.5034 10.4878C13.3761 10.8364 13.1963 11.1519 12.9639 11.4341C12.7314 11.7163 12.4492 11.9598 12.1172 12.1646C11.7907 12.3693 11.4255 12.5298 11.0215 12.646V12.6792C11.1986 12.7345 11.3701 12.8258 11.5361 12.9531C11.7021 13.0749 11.8626 13.2188 12.0176 13.3848C12.1725 13.5508 12.3192 13.7306 12.4575 13.9243C12.6014 14.1125 12.7314 14.2979 12.8477 14.4805L15.0972 18ZM7.79248 8.10547V11.4175H8.95459C9.53011 11.4175 9.99219 11.2515 10.3408 10.9194C10.695 10.5819 10.8721 10.1641 10.8721 9.66602C10.8721 8.62565 10.2495 8.10547 9.00439 8.10547H7.79248ZM24.228 8.27979H20.833V18H18.1436V8.27979H14.7651V6.09668H24.228V8.27979Z" fill="#1C212A"/>
<path d="M15.0972 18V18.1H15.2798L15.1814 17.9461L15.0972 18ZM12.0176 18L11.932 18.0517L11.9612 18.1H12.0176V18ZM10.1665 14.937L10.0806 14.9882L10.0809 14.9887L10.1665 14.937ZM9.37793 13.8496L9.30567 13.9189L9.30874 13.9218L9.37793 13.8496ZM8.97119 13.5508L8.925 13.6396L8.92929 13.6416L8.97119 13.5508ZM7.79248 13.4429V13.3429H7.69248V13.4429H7.79248ZM7.79248 18V18.1H7.89248V18H7.79248ZM5.11133 18H5.01133V18.1H5.11133V18ZM5.11133 6.09668V5.99668H5.01133V6.09668H5.11133ZM13.5034 10.4878L13.5974 10.5221L13.5975 10.5216L13.5034 10.4878ZM12.1172 12.1646L12.0647 12.0794L12.0641 12.0798L12.1172 12.1646ZM11.0215 12.646L10.9938 12.5499L10.9215 12.5707V12.646H11.0215ZM11.0215 12.6792H10.9215V12.7527L10.9917 12.7746L11.0215 12.6792ZM11.5361 12.9531L11.4753 13.0325L11.477 13.0338L11.5361 12.9531ZM12.4575 13.9243L12.3761 13.9825L12.3781 13.9851L12.4575 13.9243ZM12.8477 14.4805L12.7633 14.5342L12.7634 14.5343L12.8477 14.4805ZM7.79248 8.10547V8.00547H7.69248V8.10547H7.79248ZM7.79248 11.4175H7.69248V11.5175H7.79248V11.4175ZM10.3408 10.9194L10.4098 10.9918L10.4098 10.9918L10.3408 10.9194ZM15.0972 17.9H12.0176V18.1H15.0972V17.9ZM12.1032 17.9483L10.2521 14.8853L10.0809 14.9887L11.932 18.0517L12.1032 17.9483ZM10.2524 14.8859C10.1131 14.6518 9.97901 14.4422 9.85011 14.2573L9.68603 14.3716C9.81168 14.5519 9.9432 14.7574 10.0806 14.9882L10.2524 14.8859ZM9.85011 14.2573C9.71981 14.0703 9.58557 13.9101 9.44712 13.7774L9.30874 13.9218C9.43591 14.0437 9.56177 14.1933 9.68603 14.3716L9.85011 14.2573ZM9.45013 13.7804C9.31557 13.64 9.17001 13.5324 9.0131 13.46L8.92929 13.6416C9.06013 13.702 9.18574 13.7936 9.30573 13.9188L9.45013 13.7804ZM9.01733 13.4621C8.86381 13.3822 8.69566 13.3429 8.51465 13.3429V13.5429C8.66567 13.5429 8.80188 13.5754 8.92506 13.6395L9.01733 13.4621ZM8.51465 13.3429H7.79248V13.5429H8.51465V13.3429ZM7.69248 13.4429V18H7.89248V13.4429H7.69248ZM7.79248 17.9H5.11133V18.1H7.79248V17.9ZM5.21133 18V6.09668H5.01133V18H5.21133ZM5.11133 6.19668H9.36133V5.99668H5.11133V6.19668ZM9.36133 6.19668C10.7961 6.19668 11.854 6.46518 12.5512 6.98612C13.243 7.50296 13.5943 8.27943 13.5943 9.33398H13.7943C13.7943 8.23034 13.4235 7.38815 12.6709 6.8259C11.9239 6.26773 10.8152 5.99668 9.36133 5.99668V6.19668ZM13.5943 9.33398C13.5943 9.73868 13.5323 10.1117 13.4093 10.454L13.5975 10.5216C13.7291 10.1555 13.7943 9.75937 13.7943 9.33398H13.5943ZM13.4095 10.4535C13.286 10.7917 13.1118 11.0972 12.8867 11.3705L13.0411 11.4977C13.2808 11.2066 13.4663 10.8812 13.5974 10.5221L13.4095 10.4535ZM12.8867 11.3705C12.6617 11.6437 12.388 11.8801 12.0647 12.0794L12.1697 12.2497C12.5104 12.0395 12.8012 11.7889 13.0411 11.4977L12.8867 11.3705ZM12.0641 12.0798C11.7462 12.2792 11.3896 12.436 10.9938 12.5499L11.0491 12.7421C11.4613 12.6235 11.8352 12.4594 12.1703 12.2493L12.0641 12.0798ZM10.9215 12.646V12.6792H11.1215V12.646H10.9215ZM10.9917 12.7746C11.1562 12.8261 11.3174 12.9114 11.4753 13.0325L11.597 12.8738C11.4228 12.7402 11.2409 12.643 11.0513 12.5838L10.9917 12.7746ZM11.477 13.0338C11.6375 13.1515 11.7934 13.2911 11.9445 13.453L12.0907 13.3165C11.9319 13.1464 11.7668 12.9983 11.5953 12.8725L11.477 13.0338ZM11.9445 13.453C12.0963 13.6157 12.2402 13.7921 12.3761 13.9824L12.5389 13.8662C12.3981 13.6691 12.2487 13.4859 12.0907 13.3165L11.9445 13.453ZM12.3781 13.9851C12.5204 14.1711 12.6488 14.3542 12.7633 14.5342L12.932 14.4268C12.8141 14.2415 12.6824 14.0538 12.537 13.8636L12.3781 13.9851ZM12.7634 14.5343L15.0129 18.0539L15.1814 17.9461L12.9319 14.4266L12.7634 14.5343ZM7.69248 8.10547V11.4175H7.89248V8.10547H7.69248ZM7.79248 11.5175H8.95459V11.3175H7.79248V11.5175ZM8.95459 11.5175C9.55045 11.5175 10.039 11.345 10.4098 10.9918L10.2719 10.847C9.94535 11.158 9.50977 11.3175 8.95459 11.3175V11.5175ZM10.4098 10.9918C10.7842 10.635 10.9721 10.1909 10.9721 9.66602H10.7721C10.7721 10.1373 10.6058 10.5287 10.2718 10.847L10.4098 10.9918ZM10.9721 9.66602C10.9721 9.12523 10.8094 8.70307 10.4693 8.41887C10.1326 8.13754 9.63843 8.00547 9.00439 8.00547V8.20547C9.61548 8.20547 10.0552 8.33349 10.341 8.57234C10.6235 8.80832 10.7721 9.16644 10.7721 9.66602H10.9721ZM9.00439 8.00547H7.79248V8.20547H9.00439V8.00547ZM24.228 8.27979V8.37979H24.328V8.27979H24.228ZM20.833 8.27979V8.17979H20.733V8.27979H20.833ZM20.833 18V18.1H20.933V18H20.833ZM18.1436 18H18.0436V18.1H18.1436V18ZM18.1436 8.27979H18.2436V8.17979H18.1436V8.27979ZM14.7651 8.27979H14.6651V8.37979H14.7651V8.27979ZM14.7651 6.09668V5.99668H14.6651V6.09668H14.7651ZM24.228 6.09668H24.328V5.99668H24.228V6.09668ZM24.228 8.17979H20.833V8.37979H24.228V8.17979ZM20.733 8.27979V18H20.933V8.27979H20.733ZM20.833 17.9H18.1436V18.1H20.833V17.9ZM18.2436 18V8.27979H18.0436V18H18.2436ZM18.1436 8.17979H14.7651V8.37979H18.1436V8.17979ZM14.8651 8.27979V6.09668H14.6651V8.27979H14.8651ZM14.7651 6.19668H24.228V5.99668H14.7651V6.19668ZM24.128 6.09668V8.27979H24.328V6.09668H24.128Z" fill="#1C212A" mask="url(#path-2-outside-1_2_174)"/>
</svg>
