<svg width="32" height="32" viewBox="0 0 32 32" fill="none" xmlns="http://www.w3.org/2000/svg">
<circle cx="16" cy="14" r="12" fill="#D6E1F6"/>
<circle cx="16" cy="14" r="11.0769" fill="#1C212A"/>
<circle cx="16" cy="14" r="10.1538" fill="#D6E1F6"/>
<mask id="path-4-outside-1_2_99" maskUnits="userSpaceOnUse" x="11.5" y="7" width="11" height="14" fill="black">
<rect fill="white" x="11.5" y="7" width="11" height="14"/>
<path d="M21.8472 20H18.7676L16.9165 16.937C16.7782 16.7046 16.6453 16.4971 16.5181 16.3145C16.3908 16.1318 16.2607 15.9769 16.1279 15.8496C16.0007 15.7168 15.8651 15.6172 15.7212 15.5508C15.5828 15.4788 15.4307 15.4429 15.2646 15.4429H14.5425V20H11.8613V8.09668H16.1113C19 8.09668 20.4443 9.17578 20.4443 11.334C20.4443 11.749 20.3807 12.1336 20.2534 12.4878C20.1261 12.8364 19.9463 13.1519 19.7139 13.4341C19.4814 13.7163 19.1992 13.9598 18.8672 14.1646C18.5407 14.3693 18.1755 14.5298 17.7715 14.646V14.6792C17.9486 14.7345 18.1201 14.8258 18.2861 14.9531C18.4521 15.0749 18.6126 15.2188 18.7676 15.3848C18.9225 15.5508 19.0692 15.7306 19.2075 15.9243C19.3514 16.1125 19.4814 16.2979 19.5977 16.4805L21.8472 20ZM14.5425 10.1055V13.4175H15.7046C16.2801 13.4175 16.7422 13.2515 17.0908 12.9194C17.445 12.5819 17.6221 12.1641 17.6221 11.666C17.6221 10.6257 16.9995 10.1055 15.7544 10.1055H14.5425Z"/>
</mask>
<path d="M21.8472 20H18.7676L16.9165 16.937C16.7782 16.7046 16.6453 16.4971 16.5181 16.3145C16.3908 16.1318 16.2607 15.9769 16.1279 15.8496C16.0007 15.7168 15.8651 15.6172 15.7212 15.5508C15.5828 15.4788 15.4307 15.4429 15.2646 15.4429H14.5425V20H11.8613V8.09668H16.1113C19 8.09668 20.4443 9.17578 20.4443 11.334C20.4443 11.749 20.3807 12.1336 20.2534 12.4878C20.1261 12.8364 19.9463 13.1519 19.7139 13.4341C19.4814 13.7163 19.1992 13.9598 18.8672 14.1646C18.5407 14.3693 18.1755 14.5298 17.7715 14.646V14.6792C17.9486 14.7345 18.1201 14.8258 18.2861 14.9531C18.4521 15.0749 18.6126 15.2188 18.7676 15.3848C18.9225 15.5508 19.0692 15.7306 19.2075 15.9243C19.3514 16.1125 19.4814 16.2979 19.5977 16.4805L21.8472 20ZM14.5425 10.1055V13.4175H15.7046C16.2801 13.4175 16.7422 13.2515 17.0908 12.9194C17.445 12.5819 17.6221 12.1641 17.6221 11.666C17.6221 10.6257 16.9995 10.1055 15.7544 10.1055H14.5425Z" fill="#1C212A"/>
<path d="M21.8472 20V20.1H22.0298L21.9314 19.9461L21.8472 20ZM18.7676 20L18.682 20.0517L18.7112 20.1H18.7676V20ZM16.9165 16.937L16.8306 16.9882L16.8309 16.9887L16.9165 16.937ZM16.1279 15.8496L16.0557 15.9189L16.0587 15.9218L16.1279 15.8496ZM15.7212 15.5508L15.675 15.6396L15.6793 15.6416L15.7212 15.5508ZM14.5425 15.4429V15.3429H14.4425V15.4429H14.5425ZM14.5425 20V20.1H14.6425V20H14.5425ZM11.8613 20H11.7613V20.1H11.8613V20ZM11.8613 8.09668V7.99668H11.7613V8.09668H11.8613ZM20.2534 12.4878L20.3474 12.5221L20.3475 12.5216L20.2534 12.4878ZM18.8672 14.1646L18.8147 14.0794L18.8141 14.0798L18.8672 14.1646ZM17.7715 14.646L17.7438 14.5499L17.6715 14.5707V14.646H17.7715ZM17.7715 14.6792H17.6715V14.7527L17.7417 14.7746L17.7715 14.6792ZM18.2861 14.9531L18.2253 15.0325L18.227 15.0338L18.2861 14.9531ZM19.2075 15.9243L19.1261 15.9825L19.1281 15.9851L19.2075 15.9243ZM19.5977 16.4805L19.5133 16.5342L19.5134 16.5343L19.5977 16.4805ZM14.5425 10.1055V10.0055H14.4425V10.1055H14.5425ZM14.5425 13.4175H14.4425V13.5175H14.5425V13.4175ZM17.0908 12.9194L17.1598 12.9918L17.1598 12.9918L17.0908 12.9194ZM21.8472 19.9H18.7676V20.1H21.8472V19.9ZM18.8532 19.9483L17.0021 16.8853L16.8309 16.9887L18.682 20.0517L18.8532 19.9483ZM17.0024 16.8859C16.8631 16.6518 16.729 16.4422 16.6001 16.2573L16.436 16.3716C16.5617 16.5519 16.6932 16.7574 16.8306 16.9882L17.0024 16.8859ZM16.6001 16.2573C16.4698 16.0703 16.3356 15.9101 16.1971 15.7774L16.0587 15.9218C16.1859 16.0437 16.3118 16.1933 16.436 16.3716L16.6001 16.2573ZM16.2001 15.7804C16.0656 15.64 15.92 15.5324 15.7631 15.46L15.6793 15.6416C15.8101 15.702 15.9357 15.7936 16.0557 15.9188L16.2001 15.7804ZM15.7673 15.4621C15.6138 15.3822 15.4457 15.3429 15.2646 15.3429V15.5429C15.4157 15.5429 15.5519 15.5754 15.6751 15.6395L15.7673 15.4621ZM15.2646 15.3429H14.5425V15.5429H15.2646V15.3429ZM14.4425 15.4429V20H14.6425V15.4429H14.4425ZM14.5425 19.9H11.8613V20.1H14.5425V19.9ZM11.9613 20V8.09668H11.7613V20H11.9613ZM11.8613 8.19668H16.1113V7.99668H11.8613V8.19668ZM16.1113 8.19668C17.5461 8.19668 18.604 8.46518 19.3012 8.98612C19.993 9.50296 20.3443 10.2794 20.3443 11.334H20.5443C20.5443 10.2303 20.1735 9.38815 19.4209 8.8259C18.6739 8.26773 17.5652 7.99668 16.1113 7.99668V8.19668ZM20.3443 11.334C20.3443 11.7387 20.2823 12.1117 20.1593 12.454L20.3475 12.5216C20.4791 12.1555 20.5443 11.7594 20.5443 11.334H20.3443ZM20.1595 12.4535C20.036 12.7917 19.8618 13.0972 19.6367 13.3705L19.7911 13.4977C20.0308 13.2066 20.2163 12.8812 20.3474 12.5221L20.1595 12.4535ZM19.6367 13.3705C19.4117 13.6437 19.138 13.8801 18.8147 14.0794L18.9197 14.2497C19.2604 14.0395 19.5512 13.7889 19.7911 13.4977L19.6367 13.3705ZM18.8141 14.0798C18.4962 14.2792 18.1396 14.436 17.7438 14.5499L17.7991 14.7421C18.2113 14.6235 18.5852 14.4594 18.9203 14.2493L18.8141 14.0798ZM17.6715 14.646V14.6792H17.8715V14.646H17.6715ZM17.7417 14.7746C17.9062 14.8261 18.0674 14.9114 18.2253 15.0325L18.347 14.8738C18.1728 14.7402 17.9909 14.643 17.8013 14.5838L17.7417 14.7746ZM18.227 15.0338C18.3875 15.1515 18.5434 15.2911 18.6945 15.453L18.8407 15.3165C18.6819 15.1464 18.5168 14.9983 18.3453 14.8725L18.227 15.0338ZM18.6945 15.453C18.8463 15.6157 18.9902 15.7921 19.1261 15.9824L19.2889 15.8662C19.1481 15.6691 18.9987 15.4859 18.8407 15.3165L18.6945 15.453ZM19.1281 15.9851C19.2704 16.1711 19.3988 16.3542 19.5133 16.5342L19.682 16.4268C19.5641 16.2415 19.4324 16.0538 19.287 15.8636L19.1281 15.9851ZM19.5134 16.5343L21.7629 20.0539L21.9314 19.9461L19.6819 16.4266L19.5134 16.5343ZM14.4425 10.1055V13.4175H14.6425V10.1055H14.4425ZM14.5425 13.5175H15.7046V13.3175H14.5425V13.5175ZM15.7046 13.5175C16.3005 13.5175 16.789 13.345 17.1598 12.9918L17.0219 12.847C16.6954 13.158 16.2598 13.3175 15.7046 13.3175V13.5175ZM17.1598 12.9918C17.5342 12.635 17.7221 12.1909 17.7221 11.666H17.5221C17.5221 12.1373 17.3558 12.5287 17.0218 12.847L17.1598 12.9918ZM17.7221 11.666C17.7221 11.1252 17.5594 10.7031 17.2193 10.4189C16.8826 10.1375 16.3884 10.0055 15.7544 10.0055V10.2055C16.3655 10.2055 16.8052 10.3335 17.091 10.5723C17.3735 10.8083 17.5221 11.1664 17.5221 11.666H17.7221ZM15.7544 10.0055H14.5425V10.2055H15.7544V10.0055Z" fill="#1C212A" mask="url(#path-4-outside-1_2_99)"/>
<path d="M22.9533 25.5581C18.0575 28.055 14.6776 28.0654 9.13587 25.5381C9.02383 25.487 8.92522 25.6531 9.02582 25.7241L16.4386 30.9566C16.475 30.9823 16.5239 30.9809 16.5587 30.953L23.0739 25.7409C23.1696 25.6643 23.0624 25.5025 22.9533 25.5581Z" fill="#D6E1F6"/>
</svg>
