<svg width="32" height="32" viewBox="0 0 32 32" fill="none" xmlns="http://www.w3.org/2000/svg">
<circle cx="18.5" cy="16" r="12" fill="#D6E1F6"/>
<circle cx="18.5" cy="16" r="11.0769" fill="#1C212A"/>
<circle cx="18.5" cy="16" r="10.1538" fill="#D6E1F6"/>
<mask id="path-4-outside-1_2_115" maskUnits="userSpaceOnUse" x="14" y="9" width="11" height="14" fill="black">
<rect fill="white" x="14" y="9" width="11" height="14"/>
<path d="M24.3472 22H21.2676L19.4165 18.937C19.2782 18.7046 19.1453 18.4971 19.0181 18.3145C18.8908 18.1318 18.7607 17.9769 18.6279 17.8496C18.5007 17.7168 18.3651 17.6172 18.2212 17.5508C18.0828 17.4788 17.9307 17.4429 17.7646 17.4429H17.0425V22H14.3613V10.0967H18.6113C21.5 10.0967 22.9443 11.1758 22.9443 13.334C22.9443 13.749 22.8807 14.1336 22.7534 14.4878C22.6261 14.8364 22.4463 15.1519 22.2139 15.4341C21.9814 15.7163 21.6992 15.9598 21.3672 16.1646C21.0407 16.3693 20.6755 16.5298 20.2715 16.646V16.6792C20.4486 16.7345 20.6201 16.8258 20.7861 16.9531C20.9521 17.0749 21.1126 17.2188 21.2676 17.3848C21.4225 17.5508 21.5692 17.7306 21.7075 17.9243C21.8514 18.1125 21.9814 18.2979 22.0977 18.4805L24.3472 22ZM17.0425 12.1055V15.4175H18.2046C18.7801 15.4175 19.2422 15.2515 19.5908 14.9194C19.945 14.5819 20.1221 14.1641 20.1221 13.666C20.1221 12.6257 19.4995 12.1055 18.2544 12.1055H17.0425Z"/>
</mask>
<path d="M24.3472 22H21.2676L19.4165 18.937C19.2782 18.7046 19.1453 18.4971 19.0181 18.3145C18.8908 18.1318 18.7607 17.9769 18.6279 17.8496C18.5007 17.7168 18.3651 17.6172 18.2212 17.5508C18.0828 17.4788 17.9307 17.4429 17.7646 17.4429H17.0425V22H14.3613V10.0967H18.6113C21.5 10.0967 22.9443 11.1758 22.9443 13.334C22.9443 13.749 22.8807 14.1336 22.7534 14.4878C22.6261 14.8364 22.4463 15.1519 22.2139 15.4341C21.9814 15.7163 21.6992 15.9598 21.3672 16.1646C21.0407 16.3693 20.6755 16.5298 20.2715 16.646V16.6792C20.4486 16.7345 20.6201 16.8258 20.7861 16.9531C20.9521 17.0749 21.1126 17.2188 21.2676 17.3848C21.4225 17.5508 21.5692 17.7306 21.7075 17.9243C21.8514 18.1125 21.9814 18.2979 22.0977 18.4805L24.3472 22ZM17.0425 12.1055V15.4175H18.2046C18.7801 15.4175 19.2422 15.2515 19.5908 14.9194C19.945 14.5819 20.1221 14.1641 20.1221 13.666C20.1221 12.6257 19.4995 12.1055 18.2544 12.1055H17.0425Z" fill="#1C212A"/>
<path d="M24.3472 22V22.1H24.5298L24.4314 21.9461L24.3472 22ZM21.2676 22L21.182 22.0517L21.2112 22.1H21.2676V22ZM19.4165 18.937L19.3306 18.9882L19.3309 18.9887L19.4165 18.937ZM18.6279 17.8496L18.5557 17.9189L18.5587 17.9218L18.6279 17.8496ZM18.2212 17.5508L18.175 17.6396L18.1793 17.6416L18.2212 17.5508ZM17.0425 17.4429V17.3429H16.9425V17.4429H17.0425ZM17.0425 22V22.1H17.1425V22H17.0425ZM14.3613 22H14.2613V22.1H14.3613V22ZM14.3613 10.0967V9.99668H14.2613V10.0967H14.3613ZM22.7534 14.4878L22.8474 14.5221L22.8475 14.5216L22.7534 14.4878ZM21.3672 16.1646L21.3147 16.0794L21.3141 16.0798L21.3672 16.1646ZM20.2715 16.646L20.2438 16.5499L20.1715 16.5707V16.646H20.2715ZM20.2715 16.6792H20.1715V16.7527L20.2417 16.7746L20.2715 16.6792ZM20.7861 16.9531L20.7253 17.0325L20.727 17.0338L20.7861 16.9531ZM21.7075 17.9243L21.6261 17.9825L21.6281 17.9851L21.7075 17.9243ZM22.0977 18.4805L22.0133 18.5342L22.0134 18.5343L22.0977 18.4805ZM17.0425 12.1055V12.0055H16.9425V12.1055H17.0425ZM17.0425 15.4175H16.9425V15.5175H17.0425V15.4175ZM19.5908 14.9194L19.6598 14.9918L19.6598 14.9918L19.5908 14.9194ZM24.3472 21.9H21.2676V22.1H24.3472V21.9ZM21.3532 21.9483L19.5021 18.8853L19.3309 18.9887L21.182 22.0517L21.3532 21.9483ZM19.5024 18.8859C19.3631 18.6518 19.229 18.4422 19.1001 18.2573L18.936 18.3716C19.0617 18.5519 19.1932 18.7574 19.3306 18.9882L19.5024 18.8859ZM19.1001 18.2573C18.9698 18.0703 18.8356 17.9101 18.6971 17.7774L18.5587 17.9218C18.6859 18.0437 18.8118 18.1933 18.936 18.3716L19.1001 18.2573ZM18.7001 17.7804C18.5656 17.64 18.42 17.5324 18.2631 17.46L18.1793 17.6416C18.3101 17.702 18.4357 17.7936 18.5557 17.9188L18.7001 17.7804ZM18.2673 17.4621C18.1138 17.3822 17.9457 17.3429 17.7646 17.3429V17.5429C17.9157 17.5429 18.0519 17.5754 18.1751 17.6395L18.2673 17.4621ZM17.7646 17.3429H17.0425V17.5429H17.7646V17.3429ZM16.9425 17.4429V22H17.1425V17.4429H16.9425ZM17.0425 21.9H14.3613V22.1H17.0425V21.9ZM14.4613 22V10.0967H14.2613V22H14.4613ZM14.3613 10.1967H18.6113V9.99668H14.3613V10.1967ZM18.6113 10.1967C20.0461 10.1967 21.104 10.4652 21.8012 10.9861C22.493 11.503 22.8443 12.2794 22.8443 13.334H23.0443C23.0443 12.2303 22.6735 11.3882 21.9209 10.8259C21.1739 10.2677 20.0652 9.99668 18.6113 9.99668V10.1967ZM22.8443 13.334C22.8443 13.7387 22.7823 14.1117 22.6593 14.454L22.8475 14.5216C22.9791 14.1555 23.0443 13.7594 23.0443 13.334H22.8443ZM22.6595 14.4535C22.536 14.7917 22.3618 15.0972 22.1367 15.3705L22.2911 15.4977C22.5308 15.2066 22.7163 14.8812 22.8474 14.5221L22.6595 14.4535ZM22.1367 15.3705C21.9117 15.6437 21.638 15.8801 21.3147 16.0794L21.4197 16.2497C21.7604 16.0395 22.0512 15.7889 22.2911 15.4977L22.1367 15.3705ZM21.3141 16.0798C20.9962 16.2792 20.6396 16.436 20.2438 16.5499L20.2991 16.7421C20.7113 16.6235 21.0852 16.4594 21.4203 16.2493L21.3141 16.0798ZM20.1715 16.646V16.6792H20.3715V16.646H20.1715ZM20.2417 16.7746C20.4062 16.8261 20.5674 16.9114 20.7253 17.0325L20.847 16.8738C20.6728 16.7402 20.4909 16.643 20.3013 16.5838L20.2417 16.7746ZM20.727 17.0338C20.8875 17.1515 21.0434 17.2911 21.1945 17.453L21.3407 17.3165C21.1819 17.1464 21.0168 16.9983 20.8453 16.8725L20.727 17.0338ZM21.1945 17.453C21.3463 17.6157 21.4902 17.7921 21.6261 17.9824L21.7889 17.8662C21.6481 17.6691 21.4987 17.4859 21.3407 17.3165L21.1945 17.453ZM21.6281 17.9851C21.7704 18.1711 21.8988 18.3542 22.0133 18.5342L22.182 18.4268C22.0641 18.2415 21.9324 18.0538 21.787 17.8636L21.6281 17.9851ZM22.0134 18.5343L24.2629 22.0539L24.4314 21.9461L22.1819 18.4266L22.0134 18.5343ZM16.9425 12.1055V15.4175H17.1425V12.1055H16.9425ZM17.0425 15.5175H18.2046V15.3175H17.0425V15.5175ZM18.2046 15.5175C18.8005 15.5175 19.289 15.345 19.6598 14.9918L19.5219 14.847C19.1954 15.158 18.7598 15.3175 18.2046 15.3175V15.5175ZM19.6598 14.9918C20.0342 14.635 20.2221 14.1909 20.2221 13.666H20.0221C20.0221 14.1373 19.8558 14.5287 19.5218 14.847L19.6598 14.9918ZM20.2221 13.666C20.2221 13.1252 20.0594 12.7031 19.7193 12.4189C19.3826 12.1375 18.8884 12.0055 18.2544 12.0055V12.2055C18.8655 12.2055 19.3052 12.3335 19.591 12.5723C19.8735 12.8083 20.0221 13.1664 20.0221 13.666H20.2221ZM18.2544 12.0055H17.0425V12.2055H18.2544V12.0055Z" fill="#1C212A" mask="url(#path-4-outside-1_2_115)"/>
<path d="M6.69186 9.54674C4.195 14.4425 4.18463 17.8224 6.71188 23.3641C6.76297 23.4762 6.5969 23.5748 6.52589 23.4742L1.29336 16.0614C1.26768 16.025 1.26915 15.9761 1.29697 15.9413L6.50915 9.42607C6.58571 9.33036 6.74754 9.43755 6.69186 9.54674Z" fill="#D6E1F6"/>
</svg>
