<svg width="34" height="34" viewBox="0 0 34 34" fill="none" xmlns="http://www.w3.org/2000/svg">
<rect y="10" width="34" height="16" rx="8" fill="#D6E1F6"/>
<rect x="9" y="26" width="16" height="4" fill="#D6E1F6"/>
<mask id="path-3-outside-1_2_241" maskUnits="userSpaceOnUse" x="12" y="11.5" width="11" height="14" fill="black">
<rect fill="white" x="12" y="11.5" width="11" height="14"/>
<path d="M22.3472 24.5H19.2676L17.4165 21.437C17.2782 21.2046 17.1453 20.9971 17.0181 20.8145C16.8908 20.6318 16.7607 20.4769 16.6279 20.3496C16.5007 20.2168 16.3651 20.1172 16.2212 20.0508C16.0828 19.9788 15.9307 19.9429 15.7646 19.9429H15.0425V24.5H12.3613V12.5967H16.6113C19.5 12.5967 20.9443 13.6758 20.9443 15.834C20.9443 16.249 20.8807 16.6336 20.7534 16.9878C20.6261 17.3364 20.4463 17.6519 20.2139 17.9341C19.9814 18.2163 19.6992 18.4598 19.3672 18.6646C19.0407 18.8693 18.6755 19.0298 18.2715 19.146V19.1792C18.4486 19.2345 18.6201 19.3258 18.7861 19.4531C18.9521 19.5749 19.1126 19.7188 19.2676 19.8848C19.4225 20.0508 19.5692 20.2306 19.7075 20.4243C19.8514 20.6125 19.9814 20.7979 20.0977 20.9805L22.3472 24.5ZM15.0425 14.6055V17.9175H16.2046C16.7801 17.9175 17.2422 17.7515 17.5908 17.4194C17.945 17.0819 18.1221 16.6641 18.1221 16.166C18.1221 15.1257 17.4995 14.6055 16.2544 14.6055H15.0425Z"/>
</mask>
<path d="M22.3472 24.5H19.2676L17.4165 21.437C17.2782 21.2046 17.1453 20.9971 17.0181 20.8145C16.8908 20.6318 16.7607 20.4769 16.6279 20.3496C16.5007 20.2168 16.3651 20.1172 16.2212 20.0508C16.0828 19.9788 15.9307 19.9429 15.7646 19.9429H15.0425V24.5H12.3613V12.5967H16.6113C19.5 12.5967 20.9443 13.6758 20.9443 15.834C20.9443 16.249 20.8807 16.6336 20.7534 16.9878C20.6261 17.3364 20.4463 17.6519 20.2139 17.9341C19.9814 18.2163 19.6992 18.4598 19.3672 18.6646C19.0407 18.8693 18.6755 19.0298 18.2715 19.146V19.1792C18.4486 19.2345 18.6201 19.3258 18.7861 19.4531C18.9521 19.5749 19.1126 19.7188 19.2676 19.8848C19.4225 20.0508 19.5692 20.2306 19.7075 20.4243C19.8514 20.6125 19.9814 20.7979 20.0977 20.9805L22.3472 24.5ZM15.0425 14.6055V17.9175H16.2046C16.7801 17.9175 17.2422 17.7515 17.5908 17.4194C17.945 17.0819 18.1221 16.6641 18.1221 16.166C18.1221 15.1257 17.4995 14.6055 16.2544 14.6055H15.0425Z" fill="#1C212A"/>
<path d="M22.3472 24.5V24.6H22.5298L22.4314 24.4461L22.3472 24.5ZM19.2676 24.5L19.182 24.5517L19.2112 24.6H19.2676V24.5ZM17.4165 21.437L17.3306 21.4882L17.3309 21.4887L17.4165 21.437ZM16.6279 20.3496L16.5557 20.4189L16.5587 20.4218L16.6279 20.3496ZM16.2212 20.0508L16.175 20.1396L16.1793 20.1416L16.2212 20.0508ZM15.0425 19.9429V19.8429H14.9425V19.9429H15.0425ZM15.0425 24.5V24.6H15.1425V24.5H15.0425ZM12.3613 24.5H12.2613V24.6H12.3613V24.5ZM12.3613 12.5967V12.4967H12.2613V12.5967H12.3613ZM20.7534 16.9878L20.8474 17.0221L20.8475 17.0216L20.7534 16.9878ZM19.3672 18.6646L19.3147 18.5794L19.3141 18.5798L19.3672 18.6646ZM18.2715 19.146L18.2438 19.0499L18.1715 19.0707V19.146H18.2715ZM18.2715 19.1792H18.1715V19.2527L18.2417 19.2746L18.2715 19.1792ZM18.7861 19.4531L18.7253 19.5325L18.727 19.5338L18.7861 19.4531ZM19.7075 20.4243L19.6261 20.4825L19.6281 20.4851L19.7075 20.4243ZM20.0977 20.9805L20.0133 21.0342L20.0134 21.0343L20.0977 20.9805ZM15.0425 14.6055V14.5055H14.9425V14.6055H15.0425ZM15.0425 17.9175H14.9425V18.0175H15.0425V17.9175ZM17.5908 17.4194L17.6598 17.4918L17.6598 17.4918L17.5908 17.4194ZM22.3472 24.4H19.2676V24.6H22.3472V24.4ZM19.3532 24.4483L17.5021 21.3853L17.3309 21.4887L19.182 24.5517L19.3532 24.4483ZM17.5024 21.3859C17.3631 21.1518 17.229 20.9422 17.1001 20.7573L16.936 20.8716C17.0617 21.0519 17.1932 21.2574 17.3306 21.4882L17.5024 21.3859ZM17.1001 20.7573C16.9698 20.5703 16.8356 20.4101 16.6971 20.2774L16.5587 20.4218C16.6859 20.5437 16.8118 20.6933 16.936 20.8716L17.1001 20.7573ZM16.7001 20.2804C16.5656 20.14 16.42 20.0324 16.2631 19.96L16.1793 20.1416C16.3101 20.202 16.4357 20.2936 16.5557 20.4188L16.7001 20.2804ZM16.2673 19.9621C16.1138 19.8822 15.9457 19.8429 15.7646 19.8429V20.0429C15.9157 20.0429 16.0519 20.0754 16.1751 20.1395L16.2673 19.9621ZM15.7646 19.8429H15.0425V20.0429H15.7646V19.8429ZM14.9425 19.9429V24.5H15.1425V19.9429H14.9425ZM15.0425 24.4H12.3613V24.6H15.0425V24.4ZM12.4613 24.5V12.5967H12.2613V24.5H12.4613ZM12.3613 12.6967H16.6113V12.4967H12.3613V12.6967ZM16.6113 12.6967C18.0461 12.6967 19.104 12.9652 19.8012 13.4861C20.493 14.003 20.8443 14.7794 20.8443 15.834H21.0443C21.0443 14.7303 20.6735 13.8882 19.9209 13.3259C19.1739 12.7677 18.0652 12.4967 16.6113 12.4967V12.6967ZM20.8443 15.834C20.8443 16.2387 20.7823 16.6117 20.6593 16.954L20.8475 17.0216C20.9791 16.6555 21.0443 16.2594 21.0443 15.834H20.8443ZM20.6595 16.9535C20.536 17.2917 20.3618 17.5972 20.1367 17.8705L20.2911 17.9977C20.5308 17.7066 20.7163 17.3812 20.8474 17.0221L20.6595 16.9535ZM20.1367 17.8705C19.9117 18.1437 19.638 18.3801 19.3147 18.5794L19.4197 18.7497C19.7604 18.5395 20.0512 18.2889 20.2911 17.9977L20.1367 17.8705ZM19.3141 18.5798C18.9962 18.7792 18.6396 18.936 18.2438 19.0499L18.2991 19.2421C18.7113 19.1235 19.0852 18.9594 19.4203 18.7493L19.3141 18.5798ZM18.1715 19.146V19.1792H18.3715V19.146H18.1715ZM18.2417 19.2746C18.4062 19.3261 18.5674 19.4114 18.7253 19.5325L18.847 19.3738C18.6728 19.2402 18.4909 19.143 18.3013 19.0838L18.2417 19.2746ZM18.727 19.5338C18.8875 19.6515 19.0434 19.7911 19.1945 19.953L19.3407 19.8165C19.1819 19.6464 19.0168 19.4983 18.8453 19.3725L18.727 19.5338ZM19.1945 19.953C19.3463 20.1157 19.4902 20.2921 19.6261 20.4824L19.7889 20.3662C19.6481 20.1691 19.4987 19.9859 19.3407 19.8165L19.1945 19.953ZM19.6281 20.4851C19.7704 20.6711 19.8988 20.8542 20.0133 21.0342L20.182 20.9268C20.0641 20.7415 19.9324 20.5538 19.787 20.3636L19.6281 20.4851ZM20.0134 21.0343L22.2629 24.5539L22.4314 24.4461L20.1819 20.9266L20.0134 21.0343ZM14.9425 14.6055V17.9175H15.1425V14.6055H14.9425ZM15.0425 18.0175H16.2046V17.8175H15.0425V18.0175ZM16.2046 18.0175C16.8005 18.0175 17.289 17.845 17.6598 17.4918L17.5219 17.347C17.1954 17.658 16.7598 17.8175 16.2046 17.8175V18.0175ZM17.6598 17.4918C18.0342 17.135 18.2221 16.6909 18.2221 16.166H18.0221C18.0221 16.6373 17.8558 17.0287 17.5218 17.347L17.6598 17.4918ZM18.2221 16.166C18.2221 15.6252 18.0594 15.2031 17.7193 14.9189C17.3826 14.6375 16.8884 14.5055 16.2544 14.5055V14.7055C16.8655 14.7055 17.3052 14.8335 17.591 15.0723C17.8735 15.3083 18.0221 15.6664 18.0221 16.166H18.2221ZM16.2544 14.5055H15.0425V14.7055H16.2544V14.5055Z" fill="#1C212A" mask="url(#path-3-outside-1_2_241)"/>
<path d="M17 10L20.4641 5.5H13.5359L17 10Z" fill="#D6E1F6"/>
</svg>
