<svg width="32" height="32" viewBox="0 0 32 32" fill="none" xmlns="http://www.w3.org/2000/svg">
<circle cx="13" cy="16" r="12" fill="#D6E1F6"/>
<circle cx="13" cy="16" r="11.0769" fill="#1C212A"/>
<circle cx="13" cy="16" r="10.1538" fill="#D6E1F6"/>
<mask id="path-4-outside-1_2_107" maskUnits="userSpaceOnUse" x="8.5" y="9" width="11" height="14" fill="black">
<rect fill="white" x="8.5" y="9" width="11" height="14"/>
<path d="M18.8472 22H15.7676L13.9165 18.937C13.7782 18.7046 13.6453 18.4971 13.5181 18.3145C13.3908 18.1318 13.2607 17.9769 13.1279 17.8496C13.0007 17.7168 12.8651 17.6172 12.7212 17.5508C12.5828 17.4788 12.4307 17.4429 12.2646 17.4429H11.5425V22H8.86133V10.0967H13.1113C16 10.0967 17.4443 11.1758 17.4443 13.334C17.4443 13.749 17.3807 14.1336 17.2534 14.4878C17.1261 14.8364 16.9463 15.1519 16.7139 15.4341C16.4814 15.7163 16.1992 15.9598 15.8672 16.1646C15.5407 16.3693 15.1755 16.5298 14.7715 16.646V16.6792C14.9486 16.7345 15.1201 16.8258 15.2861 16.9531C15.4521 17.0749 15.6126 17.2188 15.7676 17.3848C15.9225 17.5508 16.0692 17.7306 16.2075 17.9243C16.3514 18.1125 16.4814 18.2979 16.5977 18.4805L18.8472 22ZM11.5425 12.1055V15.4175H12.7046C13.2801 15.4175 13.7422 15.2515 14.0908 14.9194C14.445 14.5819 14.6221 14.1641 14.6221 13.666C14.6221 12.6257 13.9995 12.1055 12.7544 12.1055H11.5425Z"/>
</mask>
<path d="M18.8472 22H15.7676L13.9165 18.937C13.7782 18.7046 13.6453 18.4971 13.5181 18.3145C13.3908 18.1318 13.2607 17.9769 13.1279 17.8496C13.0007 17.7168 12.8651 17.6172 12.7212 17.5508C12.5828 17.4788 12.4307 17.4429 12.2646 17.4429H11.5425V22H8.86133V10.0967H13.1113C16 10.0967 17.4443 11.1758 17.4443 13.334C17.4443 13.749 17.3807 14.1336 17.2534 14.4878C17.1261 14.8364 16.9463 15.1519 16.7139 15.4341C16.4814 15.7163 16.1992 15.9598 15.8672 16.1646C15.5407 16.3693 15.1755 16.5298 14.7715 16.646V16.6792C14.9486 16.7345 15.1201 16.8258 15.2861 16.9531C15.4521 17.0749 15.6126 17.2188 15.7676 17.3848C15.9225 17.5508 16.0692 17.7306 16.2075 17.9243C16.3514 18.1125 16.4814 18.2979 16.5977 18.4805L18.8472 22ZM11.5425 12.1055V15.4175H12.7046C13.2801 15.4175 13.7422 15.2515 14.0908 14.9194C14.445 14.5819 14.6221 14.1641 14.6221 13.666C14.6221 12.6257 13.9995 12.1055 12.7544 12.1055H11.5425Z" fill="#1C212A"/>
<path d="M18.8472 22V22.1H19.0298L18.9314 21.9461L18.8472 22ZM15.7676 22L15.682 22.0517L15.7112 22.1H15.7676V22ZM13.9165 18.937L13.8306 18.9882L13.8309 18.9887L13.9165 18.937ZM13.1279 17.8496L13.0557 17.9189L13.0587 17.9218L13.1279 17.8496ZM12.7212 17.5508L12.675 17.6396L12.6793 17.6416L12.7212 17.5508ZM11.5425 17.4429V17.3429H11.4425V17.4429H11.5425ZM11.5425 22V22.1H11.6425V22H11.5425ZM8.86133 22H8.76133V22.1H8.86133V22ZM8.86133 10.0967V9.99668H8.76133V10.0967H8.86133ZM17.2534 14.4878L17.3474 14.5221L17.3475 14.5216L17.2534 14.4878ZM15.8672 16.1646L15.8147 16.0794L15.8141 16.0798L15.8672 16.1646ZM14.7715 16.646L14.7438 16.5499L14.6715 16.5707V16.646H14.7715ZM14.7715 16.6792H14.6715V16.7527L14.7417 16.7746L14.7715 16.6792ZM15.2861 16.9531L15.2253 17.0325L15.227 17.0338L15.2861 16.9531ZM16.2075 17.9243L16.1261 17.9825L16.1281 17.9851L16.2075 17.9243ZM16.5977 18.4805L16.5133 18.5342L16.5134 18.5343L16.5977 18.4805ZM11.5425 12.1055V12.0055H11.4425V12.1055H11.5425ZM11.5425 15.4175H11.4425V15.5175H11.5425V15.4175ZM14.0908 14.9194L14.1598 14.9918L14.1598 14.9918L14.0908 14.9194ZM18.8472 21.9H15.7676V22.1H18.8472V21.9ZM15.8532 21.9483L14.0021 18.8853L13.8309 18.9887L15.682 22.0517L15.8532 21.9483ZM14.0024 18.8859C13.8631 18.6518 13.729 18.4422 13.6001 18.2573L13.436 18.3716C13.5617 18.5519 13.6932 18.7574 13.8306 18.9882L14.0024 18.8859ZM13.6001 18.2573C13.4698 18.0703 13.3356 17.9101 13.1971 17.7774L13.0587 17.9218C13.1859 18.0437 13.3118 18.1933 13.436 18.3716L13.6001 18.2573ZM13.2001 17.7804C13.0656 17.64 12.92 17.5324 12.7631 17.46L12.6793 17.6416C12.8101 17.702 12.9357 17.7936 13.0557 17.9188L13.2001 17.7804ZM12.7673 17.4621C12.6138 17.3822 12.4457 17.3429 12.2646 17.3429V17.5429C12.4157 17.5429 12.5519 17.5754 12.6751 17.6395L12.7673 17.4621ZM12.2646 17.3429H11.5425V17.5429H12.2646V17.3429ZM11.4425 17.4429V22H11.6425V17.4429H11.4425ZM11.5425 21.9H8.86133V22.1H11.5425V21.9ZM8.96133 22V10.0967H8.76133V22H8.96133ZM8.86133 10.1967H13.1113V9.99668H8.86133V10.1967ZM13.1113 10.1967C14.5461 10.1967 15.604 10.4652 16.3012 10.9861C16.993 11.503 17.3443 12.2794 17.3443 13.334H17.5443C17.5443 12.2303 17.1735 11.3882 16.4209 10.8259C15.6739 10.2677 14.5652 9.99668 13.1113 9.99668V10.1967ZM17.3443 13.334C17.3443 13.7387 17.2823 14.1117 17.1593 14.454L17.3475 14.5216C17.4791 14.1555 17.5443 13.7594 17.5443 13.334H17.3443ZM17.1595 14.4535C17.036 14.7917 16.8618 15.0972 16.6367 15.3705L16.7911 15.4977C17.0308 15.2066 17.2163 14.8812 17.3474 14.5221L17.1595 14.4535ZM16.6367 15.3705C16.4117 15.6437 16.138 15.8801 15.8147 16.0794L15.9197 16.2497C16.2604 16.0395 16.5512 15.7889 16.7911 15.4977L16.6367 15.3705ZM15.8141 16.0798C15.4962 16.2792 15.1396 16.436 14.7438 16.5499L14.7991 16.7421C15.2113 16.6235 15.5852 16.4594 15.9203 16.2493L15.8141 16.0798ZM14.6715 16.646V16.6792H14.8715V16.646H14.6715ZM14.7417 16.7746C14.9062 16.8261 15.0674 16.9114 15.2253 17.0325L15.347 16.8738C15.1728 16.7402 14.9909 16.643 14.8013 16.5838L14.7417 16.7746ZM15.227 17.0338C15.3875 17.1515 15.5434 17.2911 15.6945 17.453L15.8407 17.3165C15.6819 17.1464 15.5168 16.9983 15.3453 16.8725L15.227 17.0338ZM15.6945 17.453C15.8463 17.6157 15.9902 17.7921 16.1261 17.9824L16.2889 17.8662C16.1481 17.6691 15.9987 17.4859 15.8407 17.3165L15.6945 17.453ZM16.1281 17.9851C16.2704 18.1711 16.3988 18.3542 16.5133 18.5342L16.682 18.4268C16.5641 18.2415 16.4324 18.0538 16.287 17.8636L16.1281 17.9851ZM16.5134 18.5343L18.7629 22.0539L18.9314 21.9461L16.6819 18.4266L16.5134 18.5343ZM11.4425 12.1055V15.4175H11.6425V12.1055H11.4425ZM11.5425 15.5175H12.7046V15.3175H11.5425V15.5175ZM12.7046 15.5175C13.3005 15.5175 13.789 15.345 14.1598 14.9918L14.0219 14.847C13.6954 15.158 13.2598 15.3175 12.7046 15.3175V15.5175ZM14.1598 14.9918C14.5342 14.635 14.7221 14.1909 14.7221 13.666H14.5221C14.5221 14.1373 14.3558 14.5287 14.0218 14.847L14.1598 14.9918ZM14.7221 13.666C14.7221 13.1252 14.5594 12.7031 14.2193 12.4189C13.8826 12.1375 13.3884 12.0055 12.7544 12.0055V12.2055C13.3655 12.2055 13.8052 12.3335 14.091 12.5723C14.3735 12.8083 14.5221 13.1664 14.5221 13.666H14.7221ZM12.7544 12.0055H11.5425V12.2055H12.7544V12.0055Z" fill="#1C212A" mask="url(#path-4-outside-1_2_107)"/>
<path d="M24.8081 9.54674C27.305 14.4425 27.3154 17.8224 24.7881 23.3641C24.737 23.4762 24.9031 23.5748 24.9741 23.4742L30.2066 16.0614C30.2323 16.025 30.2309 15.9761 30.203 15.9413L24.9909 9.42607C24.9143 9.33036 24.7525 9.43755 24.8081 9.54674Z" fill="#D6E1F6"/>
</svg>
